<svg width="30" height="30" viewBox="0 0 30 30" fill="none" xmlns="http://www.w3.org/2000/svg">
<path d="M15.5905 2.99902C15.8644 3.02717 16.1383 3.04968 16.4113 3.08439C20.0425 3.54403 22.9167 5.2072 24.7909 8.41535C25.6511 9.89069 26.082 11.5769 26.0353 13.284C25.9885 14.9911 25.466 16.6513 24.5264 18.0773C24.4841 18.1426 24.4262 18.1964 24.3579 18.2337C24.2896 18.271 24.2131 18.2908 24.1352 18.2912C23.7291 18.2912 23.322 18.2912 22.9158 18.2781C22.8385 18.2754 22.7635 18.2515 22.699 18.209C22.6344 18.1664 22.5828 18.1069 22.5499 18.037C22.4317 17.7856 22.337 17.5229 22.2216 17.2396H22.7038C22.9336 17.2396 23.1634 17.2462 23.3923 17.2396C23.6737 17.2284 23.7741 17.0689 23.6737 16.8072C23.4364 16.1871 23.2047 15.5661 22.9617 14.948C22.9397 14.9054 22.9317 14.857 22.9389 14.8096C22.9462 14.7622 22.9683 14.7184 23.0021 14.6844C23.0744 14.6008 23.1267 14.5019 23.155 14.3951C23.1832 14.2883 23.1868 14.1764 23.1653 14.0681C23.0086 13.3927 22.1803 13.1985 21.7047 13.5775C21.587 13.6602 21.4953 13.7746 21.4401 13.9075C21.385 14.0404 21.3688 14.1862 21.3933 14.3279C21.4164 14.4873 21.4871 14.636 21.5963 14.7543C21.7055 14.8727 21.8479 14.9553 22.0049 14.9911C22.0536 15.0005 22.0986 15.0238 22.1342 15.0583C22.1699 15.0928 22.1947 15.1369 22.2057 15.1853C22.3267 15.5605 22.4589 15.9282 22.5865 16.2997C22.5871 16.3119 22.5871 16.3241 22.5865 16.3363C22.3764 16.3363 22.1635 16.3363 21.9515 16.3316C21.9214 16.3316 21.8839 16.2622 21.8689 16.219C21.5744 15.4111 21.2814 14.6025 20.99 13.7932C20.8502 13.4067 20.7085 13.0203 20.5706 12.6328C20.5472 12.5672 20.5266 12.539 20.4393 12.539C19.7977 12.539 18.4872 12.539 18.4553 12.539C18.4985 12.7492 18.5398 12.9565 18.5829 13.1647C18.7649 14.044 18.9469 14.9233 19.1289 15.8025C19.187 16.084 19.051 16.3035 18.7771 16.3091C18.1598 16.3222 17.5417 16.3138 16.901 16.3138C16.7509 15.0568 16.6017 13.8045 16.4516 12.539H15.9948C16.0595 13.796 16.1233 15.0474 16.188 16.31H13.796C13.8617 15.054 13.9283 13.8026 13.9949 12.539H13.5502C13.5193 12.7895 13.4874 13.04 13.4564 13.2895C13.3633 14.0793 13.271 14.8695 13.1797 15.66C13.1581 15.8476 13.1337 16.0352 13.1178 16.2181C13.1122 16.2894 13.0887 16.3119 13.0165 16.3119C12.4208 16.3119 11.8261 16.3213 11.2342 16.3119C10.965 16.3119 10.8083 16.1008 10.859 15.8344C11.0791 14.7625 11.3017 13.6913 11.5269 12.6207C11.5325 12.5934 11.5362 12.5719 11.5437 12.5268C11.4884 12.5268 11.4406 12.5268 11.3918 12.5268C10.8017 12.5268 10.2117 12.5353 9.62166 12.5268C9.49409 12.5268 9.44531 12.5512 9.40497 12.6647C8.78961 14.3758 8.16486 16.083 7.55513 17.7968C7.43881 18.1242 7.239 18.2874 6.89849 18.2884C6.59081 18.2884 6.28313 18.279 5.97544 18.2884C5.71185 18.2987 5.53925 18.1768 5.40698 17.9619C4.89534 17.1489 4.5098 16.263 4.26349 15.3344C3.56839 12.6075 4.06275 10.0813 5.60022 7.75027C6.9135 5.76253 8.74646 4.42862 10.9884 3.64722C12.0258 3.29201 13.1073 3.08208 14.2022 3.02341C14.2528 3.02341 14.3035 3.00747 14.3532 2.99902H15.5905ZM15.0155 8.84498C12.1444 8.84498 9.27302 8.84498 6.40132 8.84498C6.24817 8.8466 6.09576 8.86644 5.9473 8.90408C5.80753 8.94254 5.70059 9.12827 5.70059 9.28681C5.70059 9.51757 5.70059 9.74927 5.70059 9.97909C5.70313 10.0057 5.71261 10.0311 5.72809 10.0528C5.74357 10.0746 5.7645 10.0918 5.78877 10.1029C6.46292 10.3712 7.13863 10.6348 7.81591 10.8937C7.86683 10.9101 7.92164 10.9101 7.97256 10.8937C9.00755 10.4941 10.0394 10.0923 11.0681 9.68829C11.1864 9.63736 11.3136 9.61032 11.4424 9.60871C11.5712 9.6071 11.6991 9.63096 11.8186 9.67891C12.8232 10.0804 13.8288 10.4781 14.8316 10.8824C14.9324 10.9233 15.0451 10.9233 15.1459 10.8824C16.1383 10.4781 17.1327 10.0813 18.1251 9.67797C18.237 9.63061 18.3573 9.6062 18.4788 9.6062C18.6003 9.6062 18.7205 9.63061 18.8324 9.67797C19.8687 10.0838 20.9046 10.4841 21.9402 10.8787C22.0018 10.9071 22.0712 10.9141 22.1372 10.8984C22.8295 10.6395 23.518 10.3712 24.2094 10.1095C24.2919 10.0785 24.3032 10.0316 24.3032 9.94626C24.2942 9.80162 24.2942 9.65657 24.3032 9.51194C24.3313 9.11045 24.2197 8.9341 23.8557 8.86562C23.7703 8.84998 23.6836 8.84276 23.5968 8.84404L15.0155 8.84498ZM19.3484 8.50634C19.2893 8.35344 19.2414 8.22493 19.1879 8.09454C18.7508 7.05517 18.1692 6.11524 17.295 5.38074C15.8804 4.19129 14.0587 4.19692 12.6535 5.39294C11.8814 6.04958 11.3458 6.87694 10.9284 7.78873C10.8224 8.01949 10.7323 8.25776 10.6301 8.50634H19.3484ZM24.32 10.4416C23.6784 10.7061 23.0687 10.9556 22.4599 11.2098C22.3396 11.2616 22.21 11.2883 22.079 11.2883C21.9481 11.2883 21.8185 11.2616 21.6982 11.2098C20.6851 10.8083 19.6682 10.4153 18.6542 10.0157C18.6166 9.99919 18.5761 9.99068 18.5351 9.99068C18.494 9.99068 18.4535 9.99919 18.4159 10.0157C17.37 10.4247 16.3222 10.828 15.2772 11.2351C15.1044 11.3027 14.9125 11.3027 14.7397 11.2351C13.6822 10.8224 12.6231 10.4159 11.5625 10.0157C11.4925 9.98845 11.4149 9.98845 11.3449 10.0157C10.3124 10.4178 9.28271 10.8215 8.25585 11.2267C8.14033 11.2768 8.01551 11.302 7.88958 11.3006C7.76365 11.2991 7.63945 11.2711 7.52511 11.2183C6.95102 10.9669 6.37036 10.7314 5.79158 10.4894C5.76063 10.4763 5.7278 10.4688 5.67058 10.45C5.71373 10.5372 5.74187 10.602 5.77564 10.662C6.02236 11.0857 6.38445 11.4306 6.81969 11.6563C7.54669 12.0606 8.33559 12.2088 9.16014 12.2088C13.0374 12.2088 16.9163 12.207 20.7967 12.2032C21.2132 12.2002 21.6283 12.1556 22.0359 12.07C22.7535 11.9218 23.4036 11.6188 23.9176 11.0747C24.0943 10.8947 24.2303 10.6787 24.3163 10.4416H24.32ZM12.282 15.038C12.7604 15.038 13.1628 14.6806 13.1769 14.2463C13.1793 14.0365 13.1039 13.8332 12.9654 13.6756C12.8268 13.518 12.6349 13.4172 12.4264 13.3927C11.9509 13.3298 11.5128 13.5981 11.4096 14.0146C11.2736 14.5455 11.6976 15.0427 12.2782 15.0408L12.282 15.038ZM18.6054 14.2773C18.6089 14.1613 18.5892 14.0457 18.5473 13.9375C18.5055 13.8293 18.4424 13.7305 18.3618 13.647C18.2812 13.5635 18.1847 13.497 18.078 13.4514C17.9713 13.4058 17.8566 13.382 17.7405 13.3814C17.5501 13.3706 17.3612 13.4216 17.202 13.5267C17.0428 13.6318 16.9218 13.7855 16.8569 13.9649C16.801 14.1302 16.8021 14.3095 16.8601 14.4741C16.9181 14.6387 17.0296 14.7791 17.1768 14.8729C17.3167 14.9731 17.4821 15.0317 17.6539 15.0418C17.8257 15.0519 17.9969 15.0132 18.1476 14.9301C18.2755 14.8736 18.3854 14.7831 18.4654 14.6685C18.5454 14.5539 18.5926 14.4196 18.6017 14.2801L18.6054 14.2773ZM15.0042 15.0277C15.5567 15.0277 15.977 14.5709 15.8832 14.0699C15.8109 13.6778 15.4742 13.4021 15.0389 13.3795C14.8437 13.3676 14.65 13.4204 14.4878 13.5298C14.3257 13.6392 14.2042 13.7991 14.1421 13.9846C13.9864 14.5146 14.4132 15.0296 15.0005 15.0296L15.0042 15.0277ZM1.12101 21.8596C1.52625 21.7948 1.93149 21.7198 2.34048 21.6719C3.52431 21.5219 4.70813 21.3671 5.89383 21.2395C7.07953 21.1119 8.2521 20.9994 9.44156 20.9159C10.6864 20.8221 11.934 20.7677 13.1816 20.7179C14.9639 20.6467 16.7462 20.6542 18.5219 20.7564C20.1029 20.8477 21.6819 20.964 23.2591 21.1054C24.4429 21.2123 25.6221 21.369 26.8021 21.5153C27.5348 21.6091 28.2646 21.7198 29 21.8239C28.9926 21.8114 28.9834 21.8 28.9728 21.7901C28.9325 21.7667 28.8912 21.7442 28.8499 21.7235C28.21 21.4123 27.5398 21.1675 26.85 20.9928C25.6091 20.6504 24.3459 20.3946 23.0696 20.2273C21.7845 20.0585 20.4965 19.9056 19.2058 19.7921C18.2321 19.7058 17.2518 19.6908 16.2734 19.6439C16.2529 19.6415 16.2328 19.6368 16.2134 19.6298V18.3362H18.4966C18.5574 18.3375 18.6181 18.335 18.6786 18.3287C18.804 18.3128 18.9199 18.2536 19.0062 18.1613C19.0926 18.069 19.144 17.9495 19.1516 17.8233C19.1591 17.6971 19.1224 17.5723 19.0477 17.4703C18.9729 17.3684 18.865 17.2957 18.7424 17.265C18.6594 17.2502 18.5751 17.2449 18.491 17.249C16.1627 17.249 13.8348 17.249 11.5072 17.249C11.4556 17.249 11.404 17.249 11.3524 17.249C11.2177 17.2553 11.0903 17.3121 10.9956 17.408C10.9008 17.504 10.8457 17.6321 10.8411 17.7668C10.8299 18.0923 11.0691 18.3297 11.419 18.3343C12.1544 18.3343 12.8898 18.3343 13.6253 18.3343H13.7951V19.6336C13.766 19.6336 13.7482 19.6401 13.7294 19.6411C12.2635 19.6692 10.8014 19.7599 9.34306 19.9131C7.44162 20.111 5.55426 20.3877 3.69691 20.8511C2.82827 21.066 1.97089 21.3136 1.16416 21.717C1.10881 21.7451 1.05535 21.7779 1 21.8108L1.05816 21.8633L1.12101 21.8596ZM7.52886 23.73C7.43506 23.73 7.38159 23.7873 7.38159 23.9026C7.38159 23.9721 7.42099 24.0115 7.50072 24.0208L7.66207 24.0424V24.4983H6.16118V24.0208H6.23997C6.37881 24.0208 6.48293 23.9392 6.55235 23.7769L7.35345 21.9187H8.47911L9.28396 23.7657C9.31469 23.8451 9.3699 23.9126 9.44158 23.9584C9.51326 24.0043 9.5977 24.0262 9.68264 24.0208V24.4983H7.92097V24.0349L8.08231 24.0133C8.15924 24.0039 8.19769 23.9646 8.19769 23.8951C8.19769 23.7854 8.1461 23.73 8.04292 23.73H7.52886ZM7.75869 22.867L7.59359 23.3239H7.92472L7.75869 22.867ZM10.9143 22.882V23.8445C10.9159 23.8778 10.9269 23.91 10.9459 23.9374C10.965 23.9648 10.9915 23.9862 11.0222 23.9993C11.0806 24.0342 11.1473 24.053 11.2154 24.0537V24.4983H9.8468V24.0602C9.90939 24.051 9.96941 24.0289 10.0231 23.9955C10.0973 23.9552 10.1338 23.912 10.1338 23.8661V22.6231C10.1343 22.5874 10.1268 22.552 10.1119 22.5196C10.097 22.4871 10.075 22.4584 10.0475 22.4355C9.99146 22.3844 9.91799 22.3565 9.84211 22.3577V21.9121H11.5381L12.0418 23.1165L12.5484 21.9121H14.3194V22.3577C14.2452 22.3553 14.1729 22.3819 14.1178 22.4318C14.0923 22.4558 14.0721 22.4849 14.0585 22.5172C14.045 22.5496 14.0383 22.5843 14.039 22.6194V23.8304C14.0419 23.8647 14.0542 23.8976 14.0745 23.9254C14.0949 23.9532 14.1225 23.9749 14.1543 23.988C14.2149 24.0248 14.2842 24.0449 14.3551 24.0462V24.4908H12.6966V24.0527C12.7584 24.047 12.8172 24.0239 12.8664 23.9861C12.9349 23.942 12.9696 23.8979 12.9696 23.8557V22.8745C12.9696 22.8483 12.9536 22.8351 12.9227 22.8351C12.9086 22.8351 12.8955 22.852 12.8833 22.8849L12.2557 24.4946H11.6526L11.0053 22.8783C11.0025 22.8692 10.9967 22.8614 10.9889 22.8561C10.981 22.8508 10.9716 22.8484 10.9621 22.8492C10.9293 22.8492 10.9143 22.8586 10.9143 22.8783V22.882ZM15.9338 22.6269V23.8773C15.937 23.912 15.9497 23.945 15.9706 23.9729C15.9915 24.0007 16.0197 24.0222 16.052 24.0349C16.1133 24.0704 16.1829 24.0892 16.2537 24.0893V24.4983H14.5249V24.0959C14.5744 24.095 14.6232 24.0841 14.6684 24.0638C14.7135 24.0435 14.7541 24.0142 14.7875 23.9777C14.8068 23.9504 14.8158 23.9172 14.8129 23.8839V22.6194C14.8133 22.5837 14.8058 22.5483 14.7909 22.5158C14.776 22.4834 14.754 22.4547 14.7266 22.4318C14.6708 22.3807 14.5977 22.3528 14.5221 22.3539V21.9083H16.2209V22.3539C16.1464 22.3518 16.0738 22.3783 16.0183 22.428C15.9907 22.4523 15.9688 22.4824 15.9542 22.5161C15.9396 22.5499 15.9327 22.5864 15.9338 22.6231V22.6269ZM17.8418 23.489C17.8412 23.6028 17.8803 23.7133 17.9525 23.8013C18.0038 23.8643 18.0693 23.9142 18.1437 23.9468C18.2181 23.9795 18.2992 23.9939 18.3803 23.9889C18.4701 23.9919 18.5592 23.9719 18.6392 23.9308C18.6783 23.9106 18.7109 23.8796 18.7332 23.8416C18.7554 23.8036 18.7664 23.76 18.7649 23.716C18.7683 23.683 18.761 23.6498 18.7441 23.6212C18.7272 23.5927 18.7016 23.5703 18.6711 23.5574C18.6073 23.5398 18.5425 23.5266 18.4769 23.518V23.1297H20.1917V23.5002L20.0979 23.5105L20.0735 23.5218C19.9656 23.5668 19.9112 23.625 19.9112 23.6944V24.4805H19.4337C19.3999 24.3942 19.3521 24.351 19.2902 24.351C19.2498 24.3502 19.21 24.3602 19.1748 24.3801C18.8004 24.4742 18.4178 24.532 18.0323 24.5527C17.6328 24.5664 17.2401 24.4476 16.915 24.215C16.7523 24.1018 16.6201 23.95 16.5304 23.7732C16.4407 23.5964 16.3962 23.4001 16.401 23.2019C16.401 23.0324 16.4399 22.8652 16.5147 22.7132C16.5895 22.5611 16.6982 22.4282 16.8325 22.3248C17.0947 22.1065 17.4161 21.9713 17.7555 21.9365C17.9164 21.9161 18.0784 21.9055 18.2405 21.9046C18.4778 21.9023 18.7141 21.9361 18.9412 22.005C18.9779 22.0147 19.0139 22.0266 19.0491 22.0406C19.1031 22.0677 19.1597 22.0894 19.218 22.1053C19.2583 22.1053 19.3212 22.0565 19.4056 21.9581H19.9056V22.928H18.9487L18.93 22.7563C18.9206 22.6747 18.8437 22.5978 18.7002 22.5256C18.5977 22.4687 18.4833 22.4365 18.3662 22.4318C18.2974 22.4296 18.2289 22.4409 18.1645 22.4652C18.1001 22.4895 18.0412 22.5263 17.991 22.5734C17.9412 22.6199 17.902 22.6766 17.876 22.7395C17.8499 22.8025 17.8377 22.8702 17.84 22.9383L17.8418 23.489ZM22.0884 24.563C21.6697 24.5755 21.2562 24.4684 20.8961 24.2544C20.7156 24.1532 20.566 24.0047 20.4633 23.8249C20.3607 23.6451 20.309 23.4408 20.3136 23.2338C20.3136 22.7548 20.4922 22.398 20.8492 22.1635C21.1513 21.9646 21.555 21.8652 22.0603 21.8652C22.5656 21.8652 22.9692 21.9634 23.2713 22.1597C23.4439 22.2733 23.5856 22.428 23.6837 22.6099C23.7817 22.7918 23.8331 22.9953 23.8331 23.2019C23.8331 23.4086 23.7817 23.612 23.6837 23.7939C23.5856 23.9758 23.4439 24.1305 23.2713 24.2441C22.9171 24.4644 22.5053 24.5742 22.0884 24.5593V24.563ZM22.0884 22.3577C21.9308 22.3577 21.807 22.4655 21.7226 22.6832C21.6581 22.8513 21.6262 23.0303 21.6288 23.2104C21.6288 23.7732 21.7773 24.0546 22.0743 24.0546C22.3714 24.0546 22.5187 23.7713 22.5162 23.2047C22.5183 23.0281 22.4904 22.8523 22.4336 22.685C22.3539 22.4637 22.2394 22.3539 22.0884 22.3539V22.3577ZM6.87973 26.4251C6.69227 26.4313 6.50948 26.3659 6.36849 26.2421C6.30407 26.1843 6.25255 26.1136 6.21728 26.0346C6.18201 25.9556 6.16379 25.87 6.16379 25.7834C6.16379 25.6969 6.18201 25.6113 6.21728 25.5323C6.25255 25.4532 6.30407 25.3825 6.36849 25.3247C6.49202 25.2227 6.64325 25.16 6.80273 25.1446C6.96221 25.1292 7.12264 25.1619 7.26339 25.2384C7.3712 25.303 7.45714 25.3984 7.5101 25.5123H7.21743C7.1763 25.4633 7.12446 25.4244 7.06592 25.3985C7.00737 25.3726 6.94368 25.3606 6.87973 25.3632C6.82165 25.3614 6.7638 25.3712 6.70953 25.392C6.65527 25.4128 6.60567 25.4441 6.5636 25.4842C6.52347 25.5239 6.49161 25.5712 6.46987 25.6232C6.44812 25.6753 6.43693 25.7312 6.43693 25.7877C6.43693 25.8441 6.44812 25.9 6.46987 25.9521C6.49161 26.0042 6.52347 26.0514 6.5636 26.0911C6.60567 26.1312 6.65527 26.1625 6.70953 26.1833C6.7638 26.2041 6.82165 26.2139 6.87973 26.2121C6.96564 26.2157 7.05043 26.1917 7.12175 26.1437C7.18577 26.0977 7.23264 26.0316 7.25495 25.956H6.80468V25.7384H7.5495C7.55379 25.8308 7.53938 25.9232 7.50715 26.0099C7.47491 26.0966 7.4255 26.1759 7.36189 26.2431C7.2982 26.3047 7.22257 26.3527 7.13964 26.384C7.05672 26.4153 6.96826 26.4293 6.87973 26.4251ZM10.3196 25.1653L10.9227 26.4016H10.6319L10.4969 26.1277H9.86368L9.7286 26.4016H9.44718L10.0504 25.1653H10.3196ZM10.1817 25.4889L9.9725 25.9101H10.3881L10.1817 25.4889ZM13.2163 25.1653L13.7257 26.139L14.2341 25.1653H14.5455V26.4016H14.2716V25.6268L13.8692 26.4016H13.569L13.1666 25.6268V26.4016H12.8927V25.1653H13.2163ZM16.9535 25.1653V26.4016H16.6805V25.1653H16.9535ZM20.0735 25.1653H20.3474V26.4016H20.051L19.3624 25.5339V26.4016H19.0885V25.1653H19.3849L20.0735 26.033V25.1653ZM23.1231 26.4251C22.9356 26.4313 22.7528 26.3659 22.6118 26.2421C22.5474 26.1843 22.4959 26.1136 22.4606 26.0346C22.4254 25.9556 22.4071 25.87 22.4071 25.7834C22.4071 25.6969 22.4254 25.6113 22.4606 25.5323C22.4959 25.4532 22.5474 25.3825 22.6118 25.3247C22.7354 25.2227 22.8866 25.16 23.0461 25.1446C23.2056 25.1292 23.366 25.1619 23.5068 25.2384C23.6139 25.3017 23.6997 25.3954 23.7535 25.5077H23.4608C23.4197 25.4586 23.3678 25.4197 23.3093 25.3938C23.2507 25.368 23.187 25.3559 23.1231 25.3585C23.065 25.3566 23.0071 25.3664 22.9528 25.3872C22.8986 25.4079 22.849 25.4393 22.807 25.4795C22.7668 25.5192 22.735 25.5665 22.7132 25.6186C22.6915 25.6706 22.6803 25.7265 22.6803 25.783C22.6803 25.8394 22.6915 25.8953 22.7132 25.9474C22.735 25.9995 22.7668 26.0467 22.807 26.0864C22.849 26.1266 22.8986 26.158 22.9528 26.1788C23.0071 26.1996 23.065 26.2093 23.1231 26.2074C23.209 26.211 23.2938 26.187 23.3651 26.139C23.4291 26.093 23.476 26.027 23.4983 25.9514H23.048V25.7337H23.7938C23.7981 25.8261 23.7837 25.9185 23.7514 26.0052C23.7192 26.0919 23.6698 26.1712 23.6062 26.2384C23.5428 26.301 23.4672 26.3499 23.3841 26.382C23.3009 26.4141 23.2121 26.4288 23.1231 26.4251Z" fill="url(#paint0_linear_31196_15775)"/>
<defs>
<linearGradient id="paint0_linear_31196_15775" x1="14.9977" y1="26.4251" x2="14.9977" y2="2.99902" gradientUnits="userSpaceOnUse">
<stop offset="1" stop-color="white"/>
</linearGradient>
</defs>
</svg>
