<svg width="230" height="68" viewBox="0 0 230 68" fill="none" xmlns="http://www.w3.org/2000/svg">
<g clip-path="url(#clip0_4441_23055)">
<path fill-rule="evenodd" clip-rule="evenodd" d="M182.187 58H46.8133C44.7074 58 43 56.2806 43 54.16V13.84C43 11.7194 44.7074 10 46.8133 10H182.187C184.293 10 186 11.7194 186 13.84V54.16C186 56.2806 184.293 58 182.187 58Z" fill="#FF333A"/>
<path d="M59.732 48.8224L59.0742 45.8531H55.5726L54.9405 48.8224H51.4647L55.5716 31.1392H59.2048L63.4176 48.8224H59.732ZM58.547 43.1228C58.178 41.4265 57.81 39.7561 57.5469 38.0329C57.4411 37.264 57.3362 36.4691 57.2571 35.7001C57.0989 38.1923 56.5993 40.6576 56.0988 43.1238H58.547V43.1228Z" fill="white"/>
<path d="M71.8517 35.1422C71.1405 34.5326 70.3245 34.0027 69.3511 34.0027C68.3244 34.0027 67.6132 34.6919 67.6132 35.7259C67.6132 38.7748 72.8784 38.722 72.8784 43.6526C72.8784 46.7015 71.0614 49.114 67.8763 49.114C66.7971 49.114 65.7437 48.8222 64.8485 48.2126V44.8718C65.6379 45.4017 66.4549 45.826 67.4282 45.826C68.6132 45.826 69.4817 45.0839 69.4817 43.8638C69.4817 43.546 69.4293 43.2542 69.2977 42.9623C68.9822 42.2999 68.0079 41.7163 67.4282 41.3188C65.4539 39.9403 64.1898 38.6673 64.1898 36.0964C64.1898 33.3124 65.7961 30.874 68.7705 30.874C69.9555 30.874 70.824 31.139 71.8507 31.7227L71.8517 35.1422Z" fill="white"/>
<path d="M81.0228 48.8224L77.7843 39.8348V48.8224H74.3094V31.1392H77.7843V39.04L80.7063 31.1392H84.2603L81.0218 39.3049L84.655 48.8224H81.0228Z" fill="white"/>
<path d="M96.3619 38.987C96.3886 39.4372 96.3886 39.8884 96.3886 40.3387C96.3886 41.5847 96.3362 42.8577 96.073 44.0769C95.4934 46.8071 93.7297 49.114 90.7553 49.114C86.0163 49.114 84.5158 43.9703 84.5158 40.0468C84.5158 35.9908 85.8323 30.874 90.7553 30.874C93.4409 30.874 95.1779 32.5703 95.9157 35.0625L92.5457 36.3883C92.3875 35.3543 92.0986 33.9489 90.782 33.9489C88.413 33.9489 88.2281 38.3236 88.2281 39.994C88.2281 41.7441 88.3072 45.9326 90.8078 45.9326C92.703 45.9326 92.9137 43.547 92.9404 42.1147H90.7286V38.986L96.3619 38.987Z" fill="white"/>
<path d="M104.909 48.8224L104.252 45.8531H100.75L100.118 48.8224H96.6431L100.75 31.1392H104.383L108.596 48.8224H104.909ZM103.725 43.1228C103.357 41.4265 102.989 39.7561 102.725 38.0329C102.62 37.264 102.515 36.4691 102.436 35.7001C102.277 38.1923 101.778 40.6576 101.277 43.1238H103.725V43.1228Z" fill="white"/>
<path d="M121.926 48.8224L121.058 36.0966C120.979 37.4752 120.768 38.8268 120.532 40.1795L118.979 48.8224H116.32L114.688 40.816C114.504 39.9414 114.319 39.0659 114.241 38.1644L114.03 36.0966L113.477 48.8224H109.765L111.292 31.1392H115.873L117.584 41.5849L118.98 31.1392H123.666L125.482 48.8224H121.926Z" fill="white"/>
<path d="M130.629 31.1392C131.551 31.1392 133.104 31.192 134.315 32.3852C135.263 33.3136 135.763 34.7708 135.763 36.2032C135.763 37.0777 135.579 37.9532 134.947 38.7222C134.657 39.0668 134.21 39.4912 133.551 39.7561C134.683 40.1804 135.236 40.9753 135.447 41.32C135.947 42.1686 136.052 43.1497 136.052 43.8121C136.052 45.1379 135.71 46.3312 134.735 47.3113C133.393 48.663 131.629 48.8224 130.602 48.8224H126.916V31.1392H130.629ZM130.393 38.4035C130.946 38.3766 131.578 38.1385 131.92 37.7939C132.421 37.2899 132.473 36.5478 132.473 36.1504C132.473 35.726 132.421 35.0636 131.92 34.5596C131.63 34.2678 131.157 34.0297 130.393 34.0297V38.4035ZM130.393 45.8003C130.946 45.8003 131.578 45.615 131.973 45.2435C132.342 44.8988 132.631 44.2892 132.631 43.5203C132.631 42.6716 132.341 42.0352 131.946 41.6646C131.525 41.2931 130.893 41.1078 130.393 41.1078V45.8003Z" fill="white"/>
<path d="M137.733 48.8224V31.1392H141.208V45.5084H144.841V48.8224H137.733Z" fill="white"/>
<path d="M146.272 48.8224V31.1392H153.248V34.4262H149.747V38.2441H152.827V41.5849H149.747V45.5612H153.301V48.8224H146.272Z" fill="white"/>
<path d="M161.534 48.8224L158.453 40.6835V48.8224H154.979V31.1392H158.743C160.033 31.1392 161.455 31.2457 162.56 31.9878C163.956 32.9161 164.641 34.6393 164.641 36.2828C164.641 38.2979 163.851 39.7292 162.14 40.79L165.193 48.8233H161.534V48.8224ZM158.452 38.7481C158.636 38.775 158.847 38.775 159.032 38.775C160.533 38.775 161.27 37.7411 161.27 36.3097C161.27 34.8784 160.638 33.8972 159.111 33.8972H158.453V38.7481H158.452Z" fill="white"/>
<path d="M173.627 35.1422C172.915 34.5326 172.099 34.0027 171.126 34.0027C170.099 34.0027 169.388 34.6919 169.388 35.7259C169.388 38.7748 174.653 38.722 174.653 43.6526C174.653 46.7015 172.836 49.114 169.651 49.114C168.572 49.114 167.519 48.8222 166.623 48.2126V44.8718C167.413 45.4017 168.23 45.826 169.203 45.826C170.388 45.826 171.257 45.0839 171.257 43.8638C171.257 43.546 171.204 43.2542 171.073 42.9623C170.757 42.2999 169.783 41.7163 169.203 41.3188C167.229 39.9403 165.965 38.6673 165.965 36.0964C165.965 33.3124 167.571 30.874 170.545 30.874C171.73 30.874 172.599 31.139 173.626 31.7227L173.627 35.1422Z" fill="white"/>
<path d="M177.343 35.817C178.605 35.817 179.629 34.7864 179.629 33.515C179.629 32.2436 178.605 31.2129 177.343 31.2129C176.08 31.2129 175.057 32.2436 175.057 33.515C175.057 34.7864 176.08 35.817 177.343 35.817Z" fill="white"/>
<path d="M72.9518 27.666L71.3283 24.7082H70.0394V27.666H68.2795V19.3418H72.1463C73.8689 19.3418 74.9348 20.4775 74.9348 22.025C74.9348 23.4852 74.0053 24.2848 73.1129 24.496L74.9843 27.666H72.9518ZM73.1253 22.0125C73.1253 21.3261 72.5924 20.9018 71.8984 20.9018H70.0394V23.1482H71.8984C72.5924 23.1482 73.1253 22.7239 73.1253 22.0125Z" fill="white"/>
<path d="M77.4878 27.666V19.3418H83.3374V20.9018H79.2476V22.649H83.2507V24.209H79.2476V26.106H83.3374V27.666H77.4878Z" fill="white"/>
<path d="M88.27 27.666L85.0849 19.3418H87.0802L89.373 25.7316L91.6658 19.3418H93.6611L90.476 27.666H88.27Z" fill="white"/>
<path d="M95.6678 27.666V19.3418H97.4277V27.666H95.6678Z" fill="white"/>
<path d="M100.303 27.666V19.3418H106.153V20.9018H102.063V22.649H106.066V24.209H102.063V26.106H106.153V27.666H100.303Z" fill="white"/>
<path d="M115.088 27.666L113.638 21.9501L112.201 27.666H110.329L107.962 19.3418H109.933L111.383 25.3572L112.957 19.3418H114.332L115.894 25.3572L117.344 19.3418H119.314L116.96 27.666H115.088Z" fill="white"/>
<path d="M121.384 27.666V19.3418H127.234V20.9018H123.144V22.649H127.147V24.209H123.144V26.106H127.234V27.666H121.384Z" fill="white"/>
<path d="M129.849 27.666V19.3418H133.108C135.698 19.3418 137.495 21.0016 137.495 23.4976C137.495 26.0186 135.698 27.666 133.121 27.666H129.849ZM135.699 23.4976C135.699 22.0375 134.807 20.9018 133.121 20.9018H131.609V26.106H133.109C134.745 26.106 135.699 24.9204 135.699 23.4976Z" fill="white"/>
<path d="M144.411 27.666V19.3418H148.761C150.335 19.3418 151.14 20.3527 151.14 21.4634C151.14 22.4992 150.496 23.2106 149.715 23.3728C150.607 23.5101 151.302 24.3712 151.302 25.4071C151.302 26.6676 150.484 27.666 148.897 27.666H144.411ZM149.343 21.7754C149.343 21.2637 148.972 20.9018 148.377 20.9018H146.171V22.649H148.377C148.972 22.649 149.343 22.312 149.343 21.7754ZM149.504 25.1575C149.504 24.6333 149.133 24.209 148.451 24.209H146.171V26.106H148.451C149.108 26.106 149.504 25.7565 149.504 25.1575Z" fill="white"/>
<path d="M155.8 27.666V24.2589L152.628 19.3418H154.635L156.68 22.674L158.725 19.3418H160.72L157.56 24.2589V27.666H155.8Z" fill="white"/>
</g>
<defs>
<clipPath id="clip0_4441_23055">
<rect width="143" height="48" fill="white" transform="translate(43 10)"/>
</clipPath>
</defs>
</svg>
