<svg width="30" height="30" viewBox="0 0 30 30" fill="none" xmlns="http://www.w3.org/2000/svg">
<path d="M13.2006 9.72056L15.0006 8.40056L16.6806 9.72056L16.0806 7.68056L17.7606 6.36056H15.6006L15.0006 4.32056L14.2806 6.36056H12.1206L13.9206 7.68056L13.2006 9.72056Z" fill="white"/>
<path d="M18.9603 10.9204H11.2803C11.2803 10.9204 12.6003 11.5204 12.8403 12.7204H13.9203V19.6804H15.7203V12.7204H16.6803C17.2803 11.6404 18.9603 10.9204 18.9603 10.9204Z" fill="white"/>
<path fill-rule="evenodd" clip-rule="evenodd" d="M12.6006 13.2005C12.6006 14.0405 12.1206 14.6405 11.6406 14.7605C12.2406 14.8805 12.6006 15.1205 12.8406 15.4805C13.0806 15.8405 13.5606 17.0405 12.9606 18.1205C12.4806 18.9605 11.4006 19.5605 9.00059 19.5605C7.92059 19.5605 6.60059 18.7205 6.60059 18.7205V12.1205C6.60059 12.1205 7.32059 10.9205 9.00059 10.8005C10.5941 10.6943 10.8709 10.8702 11.3298 11.1617C11.3892 11.1995 11.4518 11.2392 11.5206 11.2805C12.2406 11.7605 12.6006 12.4805 12.6006 13.2005ZM8.88059 12.7205C8.64059 12.8405 8.52059 12.9605 8.52059 13.2005V14.1605H9.00059C9.72059 14.1605 10.4406 14.0405 10.4406 13.4405C10.4406 13.2005 10.4406 12.8405 10.2006 12.7205C9.84059 12.4805 9.24059 12.4805 8.88059 12.7205ZM8.88059 17.8805C9.60059 18.0005 10.2006 18.0005 10.4406 17.8805C11.2806 17.6405 10.9206 16.3205 10.5606 15.9605C10.3206 15.7205 9.84059 15.6005 9.48059 15.6005H8.52059V17.7605C8.52059 17.7605 8.76059 17.8805 8.88059 17.8805Z" fill="white"/>
<path d="M18.8405 9.48045L19.6805 9.00045L20.5205 9.72045L20.2805 8.64045L21.2405 8.16045L20.1605 8.04045L19.9205 6.96045L19.5605 7.92045L18.4805 7.80045L19.2005 8.52045L18.8405 9.48045Z" fill="white"/>
<path d="M7.08049 10.5605L6.72049 11.1605L6.60049 10.4405L6.00049 10.3205L6.60049 10.0805V9.48047L6.96049 9.96047L7.56049 9.72047L7.20049 10.2005L7.68049 10.6805L7.08049 10.5605Z" fill="white"/>
<path d="M9.48063 9.72045L10.2006 9.00045L11.1606 9.48045L10.6806 8.52045L11.4006 7.80045L10.4406 7.92045L9.96063 6.96045L9.72062 8.04045L8.64062 8.16045L9.60063 8.64045L9.48063 9.72045Z" fill="white"/>
<path d="M21.7203 16.2005H20.6403V14.6405H23.6403V18.9605C22.5603 19.6805 20.8803 19.8005 20.4003 19.8005C19.0803 19.8005 18.1203 19.2005 17.4003 18.4805C16.6803 17.7605 16.3203 16.6805 16.3203 15.2405C16.3203 13.8005 16.6803 12.7205 17.5203 12.0005C18.3603 11.1605 19.4403 10.8005 20.8803 10.8005C21.7349 10.8005 22.2138 11.1011 22.7927 11.4644C22.9453 11.5602 23.105 11.6604 23.2803 11.7605L22.4403 13.3205C21.9603 12.7205 21.2403 12.4805 20.5203 12.4805C20.0403 12.4805 19.5603 12.7205 18.9603 13.2005C18.6003 13.5605 18.2403 14.4005 18.2403 15.2405C18.2403 16.2005 18.4803 16.9205 18.8403 17.4005C19.3203 17.8805 19.9203 18.1205 20.5203 18.1205C21.1203 18.1205 21.3603 18.1205 21.7203 17.8805V16.2005Z" fill="white"/>
<path d="M22.3203 9.72047L22.9203 9.96047L23.4003 9.48047L23.2803 10.0805L23.8803 10.3205L23.2803 10.4405V11.1605L22.9203 10.5605L22.3203 10.6805L22.6803 10.2005L22.3203 9.72047Z" fill="white"/>
<path fill-rule="evenodd" clip-rule="evenodd" d="M23.1605 6.84047C21.0005 4.68047 18.1205 3.48047 15.0005 3.48047C11.8805 3.48047 9.00047 4.68047 6.84047 6.84047C4.68047 9.00047 3.48047 11.8805 3.48047 15.0005C3.48047 18.1205 4.68047 21.0005 6.84047 23.1605C9.00047 25.3205 11.8805 26.5205 15.0005 26.5205C18.1205 26.5205 21.0005 25.3205 23.1605 23.1605C25.3205 21.0005 26.5205 18.1205 26.5205 15.0005C26.5205 11.8805 25.3205 9.00047 23.1605 6.84047ZM8.16047 23.7605H8.88047C10.4405 23.8805 12.2405 24.7205 13.8005 26.0405C11.7605 25.8005 9.72047 24.9605 8.16047 23.7605ZM17.4005 25.8005C16.8005 25.5605 16.2005 25.2005 15.6005 24.7205C13.9205 23.6405 11.7605 22.3205 9.96047 21.8405C11.5205 21.8405 13.2004 22.4405 14.8804 23.0405C14.9994 23.0801 15.1195 23.1203 15.2404 23.1608C16.9496 23.733 18.8475 24.3684 20.6405 24.4805C19.5605 25.0805 18.4805 25.5605 17.4005 25.8005ZM22.0805 23.5205H20.7605C18.9605 23.4005 17.1605 22.8005 15.3605 22.2005C14.2805 21.8405 13.2005 21.4805 12.1205 21.2405C12.4805 21.2855 12.9417 21.3305 13.403 21.3755C14.1717 21.4505 14.9405 21.5255 15.2405 21.6005C17.6044 22.1377 19.7759 22.0977 20.5488 22.0834C20.6391 22.0818 20.7103 22.0805 20.7605 22.0805C21.8405 22.0805 23.0405 21.8405 24.1205 21.4805C23.8759 21.7251 23.6451 21.9697 23.4188 22.2096C22.9789 22.6758 22.5559 23.1243 22.0805 23.5205ZM14.6405 21.1205C13.2005 20.8805 11.4005 20.6405 9.60047 20.7605C8.40047 20.8805 7.20047 21.1205 6.12047 21.6005C4.68047 19.6805 3.96047 17.4005 3.96047 15.0005C3.96047 8.88047 8.88047 3.96047 15.0005 3.96047C17.0405 3.96047 19.0805 4.56047 20.8805 5.64047C26.0405 8.88047 27.6005 15.7205 24.3605 20.8805C21.7236 22.0524 18.6098 21.6347 16.1834 21.3092C15.6285 21.2348 15.1095 21.1651 14.6405 21.1205Z" fill="white"/>
</svg>
