<svg width="230" height="68" viewBox="0 0 230 68" fill="none" xmlns="http://www.w3.org/2000/svg">
<g opacity="0.8">
<g clip-path="url(#clip0_162_5257)">
<path fill-rule="evenodd" clip-rule="evenodd" d="M72.227 24.9605H73.0292C73.1867 24.9605 73.2583 24.8746 73.2727 24.7743C73.2727 24.7456 73.2727 24.717 73.2583 24.6884L70.7374 17.0395C70.5082 16.3233 69.8636 16.1658 69.3623 16.1658C68.8466 16.1658 68.2021 16.3377 67.9729 17.0538L65.4519 24.6884C65.4376 24.717 65.4376 24.7456 65.4376 24.7743C65.4376 24.8745 65.5379 24.9605 65.6668 24.9605H66.4689C66.5835 24.9605 66.6838 24.8889 66.7124 24.7886L67.5862 22.0958H71.1098L71.9979 24.7886C72.0265 24.8746 72.0981 24.9605 72.227 24.9605ZM69.3623 17.0825C69.4912 17.0825 69.5771 17.1684 69.6201 17.2973L70.8376 21.0931H67.8726L69.0901 17.2973C69.1331 17.1684 69.2191 17.0825 69.3623 17.0825Z" fill="#44BE4C"/>
<path d="M60.6392 25.0465C61.7994 25.0465 62.3294 24.9892 62.9023 24.8746C63.0599 24.846 63.1745 24.7743 63.1745 24.5595V24.0009C63.1745 23.8576 63.1029 23.786 62.9596 23.786H62.9023C62.401 23.829 61.427 23.9006 60.6535 23.9006C59.3214 23.9006 58.2901 23.0985 58.2901 20.821V20.3626C58.2901 18.0565 59.3214 17.2831 60.6535 17.2831C61.4413 17.2831 62.444 17.369 62.931 17.412H62.9739C63.1029 17.412 63.1315 17.3547 63.1315 17.2687V16.5812C63.1315 16.4666 63.0456 16.4236 62.9166 16.4093L62.8245 16.3958C62.2442 16.3105 61.4546 16.1945 60.6392 16.1945C58.9633 16.1945 57.0439 17.0539 57.0439 20.3913V20.8496C57.0439 24.1441 58.9633 25.0465 60.6392 25.0465Z" fill="#44BE4C"/>
<path d="M83.7576 24.9605H83.0127C82.8838 24.9605 82.7692 24.8316 82.7692 24.6884V16.5526C82.7692 16.4236 82.8695 16.2947 83.0127 16.2947H83.7576C83.8865 16.2947 84.0011 16.4093 84.0011 16.5526V24.6884C84.0011 24.8316 83.9008 24.9605 83.7576 24.9605Z" fill="#44BE4C"/>
<path d="M92.5093 24.9605H93.3544C93.5693 24.9605 93.7412 24.7887 93.7555 24.5595V16.5526C93.7555 16.4236 93.6552 16.2947 93.512 16.2947H92.7958C92.6669 16.2947 92.5523 16.4236 92.5523 16.5526V23.0698C92.5523 23.0841 92.5523 23.1128 92.538 23.1128L92.5093 23.0698L88.3411 16.5669C88.2265 16.3663 88.1693 16.2947 87.7825 16.2947H87.0377C86.8085 16.2947 86.6366 16.4666 86.6366 16.6815V24.803C86.6366 24.9319 86.7512 24.9605 86.8801 24.9605H87.582C87.7109 24.9605 87.8255 24.8316 87.8255 24.7027V18.1998C87.8255 18.1711 87.8255 18.1568 87.8398 18.1568C87.8541 18.1568 87.8685 18.1711 87.8828 18.1998L92.0796 24.7457C92.1369 24.8746 92.2945 24.9605 92.5093 24.9605Z" fill="#44BE4C"/>
<path fill-rule="evenodd" clip-rule="evenodd" d="M99.8573 25.061C97.7231 25.061 96.1761 23.8148 96.1761 20.7925V20.4774C96.1761 17.4551 97.7231 16.2089 99.8573 16.2089C101.992 16.2089 103.524 17.4551 103.524 20.4774V20.7925C103.524 23.8005 101.992 25.061 99.8573 25.061ZM102.278 20.4774C102.278 18.1999 101.347 17.3262 99.8573 17.3262C98.382 17.3262 97.4223 18.1999 97.4223 20.4774V20.7925C97.4223 23.07 98.3534 23.9437 99.8573 23.9437C101.333 23.9437 102.278 23.07 102.278 20.7925V20.4774Z" fill="#44BE4C"/>
<path d="M77.2403 19.6753L78.4864 20.3055C79.8902 21.0933 80.4058 21.7379 80.4201 22.669C80.4201 23.2133 80.191 25.0037 77.2689 25.0037C76.4238 25.0037 75.8079 24.9178 75.2636 24.8318H75.2493C75.0344 24.7889 74.9915 24.7316 74.9915 24.5883V24.13C74.9915 24.0011 75.0917 23.9151 75.235 23.9151H75.2779C75.8509 23.9581 76.7246 24.0011 77.2689 24.0011C78.5724 24.0011 79.2026 23.557 79.2026 22.669C79.2026 22.096 78.8302 21.7666 77.7703 21.1506L76.4668 20.4774C75.4498 19.8902 74.7766 19.3029 74.7766 18.3002C74.7766 16.9681 75.8652 16.2376 77.8276 16.2376C78.5867 16.2376 79.5177 16.3379 79.9331 16.3952C80.1193 16.4382 80.1623 16.5384 80.1623 16.6244V17.1257C80.1623 17.2546 80.062 17.3406 79.9188 17.3406H79.8902C79.0451 17.2833 78.3432 17.2546 77.8132 17.2546C76.4811 17.2546 75.9368 17.5554 75.9368 18.3146C75.9368 18.8302 76.3379 19.1597 77.2403 19.6753Z" fill="#44BE4C"/>
<path d="M47.4907 22.7976C50.2981 22.7976 53.435 23.256 54.5809 23.5997C55.1109 23.7573 55.1252 23.8289 55.1538 24.1727V27.9828C55.1538 28.3838 55.0679 28.5128 54.7098 28.4555C53.922 28.3552 51.7162 28.2406 50.1119 28.1976C46.7888 28.1117 45.1989 28.7419 45.1989 31.5923V33.8555C45.1989 37.2502 46.4737 37.3504 47.2472 37.3504C47.4477 37.3504 49.009 37.3361 49.6106 37.2932C49.7252 37.2932 49.8111 37.1929 49.8111 37.0783V35.0587C49.8111 34.9727 49.7395 34.9011 49.6536 34.9011H48.0923C47.8058 34.9011 47.5766 34.6862 47.5766 34.4141V32.1366C47.5766 31.8645 47.8058 31.6496 48.0923 31.6496H54.5809C54.8817 31.6496 55.1252 31.8931 55.1252 32.1939V41.2895C55.1252 41.7335 55.0536 41.7621 54.5809 41.8624C52.991 42.2062 49.6679 42.5929 47.2329 42.5929C43.9384 42.5929 38.9824 41.2751 38.9824 33.7982V31.5923C38.9824 23.9865 44.0387 22.7976 47.4907 22.7976Z" fill="white"/>
<path d="M66.8563 26.3645H71.0388C71.2823 26.3645 71.4971 26.5507 71.5114 26.7942V36.1762C71.5114 41.7051 67.6154 42.5359 64.2923 42.5359C60.9549 42.5359 57.0732 41.6908 57.0732 36.1762V26.7942C57.0732 26.5507 57.288 26.3645 57.5172 26.3645H61.6997C61.9289 26.3645 62.1294 26.565 62.1294 26.7942V36.1762C62.1294 37.8807 63.1607 38.2388 64.278 38.2388C65.3952 38.2388 66.4265 37.8664 66.4265 36.1762V26.7942C66.4265 26.5507 66.6271 26.3645 66.8563 26.3645Z" fill="white"/>
<path d="M102.895 26.3645H98.7121C98.4829 26.3645 98.2824 26.5507 98.2824 26.7942V36.1762C98.2824 37.8664 97.2511 38.2388 96.1338 38.2388C95.0166 38.2388 93.9853 37.8807 93.9853 36.1762V26.7942C93.9853 26.565 93.7848 26.3645 93.5556 26.3645H89.3731C89.1439 26.3645 88.929 26.5507 88.929 26.7942V36.1762C88.929 41.6908 92.8107 42.5359 96.1482 42.5359C99.4713 42.5359 103.367 41.7051 103.367 36.1762V26.7942C103.339 26.5507 103.124 26.3645 102.895 26.3645Z" fill="white"/>
<path fill-rule="evenodd" clip-rule="evenodd" d="M87.0383 31.9219C87.0383 34.228 85.7349 35.5744 84.5747 36.0901L87.511 41.705C87.554 41.7766 87.5683 41.8625 87.5683 41.9342C87.5683 42.1777 87.3821 42.3209 87.1816 42.3209H82.6983C82.3508 42.3209 82.2527 42.1339 82.148 41.9343C82.1405 41.92 82.133 41.9056 82.1253 41.8912L79.5757 36.8493H78.172V41.8912C78.172 42.1204 77.9714 42.3209 77.7423 42.3209H73.5598C73.3306 42.3209 73.1157 42.1204 73.1157 41.8912V28.2264C73.1157 26.8943 73.4595 26.6078 74.6197 26.4073C75.3502 26.2927 78.5587 26.1495 80.0341 26.1495C84.3598 26.1495 87.0383 27.4386 87.0383 31.4922V31.9219ZM80.5211 33.0821C81.581 33.0821 81.9964 32.5378 81.9964 31.9506V31.5065C81.9964 30.776 81.6097 30.375 80.5211 30.375H78.2006V33.0821H80.5211Z" fill="white"/>
<path d="M37.4639 30.8762C37.3923 30.8762 37.335 30.8619 37.2777 30.8189C35.745 29.8592 35.1291 28.1547 35.5302 25.8629C35.7737 24.4592 37.0055 22.4682 38.3233 21.308C38.8676 20.8353 39.3546 20.4486 39.7986 20.1478C39.7413 20.0475 39.6841 19.9186 39.6411 19.8183C39.5695 19.9472 39.4692 20.0618 39.3689 20.1621C38.8819 20.6204 38.6671 20.7207 38.4952 20.7207C38.4809 20.7207 38.4665 20.7207 38.4522 20.7207C38.4236 20.7494 38.3233 20.8353 38.0655 21.1647L38.0225 21.2077C37.0628 22.3536 36.1604 23.4422 35.6448 24.5165C34.9 26.0634 35.0432 27.6247 35.2007 28.4268C35.2151 28.5271 35.2007 28.6417 35.1291 28.7133C35.0575 28.7993 34.9572 28.8422 34.857 28.8422C34.7567 28.8422 34.6708 28.7993 34.5992 28.7276C32.6798 26.6364 32.1928 22.8549 36.6474 18.5292L36.6761 18.5149C37.3207 17.9849 38.1801 17.369 38.6671 17.0395C38.6528 16.9966 38.6528 16.9393 38.6528 16.8963C38.3806 17.0825 38.0368 17.3117 37.6071 17.6125C35.0002 19.6608 33.4962 21.8236 33.1381 24.0152C33.1095 24.187 32.9663 24.3159 32.7944 24.3159C32.6655 24.3159 32.5509 24.2443 32.4793 24.1297C31.5625 22.4682 32.6082 20.9929 33.0522 20.3626C33.0808 20.3196 33.1238 20.2623 33.1381 20.2337L33.1525 20.2194C34.8427 18.0852 37.292 16.6385 38.1514 16.309C38.309 16.2517 38.4665 16.1944 38.6098 16.1658C38.6098 16.1371 38.6098 16.1085 38.6098 16.0798C37.1917 16.5668 34.814 18.257 33.4962 19.7037C33.4246 19.7753 33.3387 19.8183 33.2384 19.8183C33.0522 19.8183 32.8946 19.6751 32.8803 19.4745C32.8373 18.1854 33.9689 16.8247 34.5705 16.2804C34.9429 15.9509 35.9742 15.2634 37.0628 14.6045C36.6045 14.8337 36.1318 15.0772 35.7594 15.292C35.7021 15.3207 35.6448 15.335 35.5875 15.335C35.4586 15.335 35.3297 15.2634 35.2724 15.1488C35.2151 15.0342 35.2151 14.891 35.301 14.7907C36.0602 13.7021 37.5785 12.7424 38.6957 12.3557C38.796 12.327 38.9106 12.2984 39.0252 12.2984C39.24 12.2984 39.4835 12.3557 39.727 12.4846L39.9562 12.456C39.9419 12.4416 39.9419 12.4416 39.9276 12.4273C39.8273 12.2984 39.7843 12.1265 39.813 11.9689C39.8416 11.84 39.9276 11.7254 40.0565 11.6968C40.6008 11.5392 42.1191 11.3101 43.8236 11.3101C45.4135 11.3101 47.605 11.5106 49.0661 12.456C49.195 12.5419 49.2523 12.6995 49.2093 12.857C49.1663 13.0146 49.0231 13.1148 48.8655 13.1148C48.8512 13.1148 48.8226 13.1148 48.8082 13.1148C48.5074 13.0575 48.178 13.0146 47.8056 13.0146C47.4475 13.0146 47.0751 13.0575 46.6454 13.1578C46.6167 13.1578 46.5881 13.1721 46.5737 13.1721C46.5308 13.1721 46.4878 13.1721 46.4591 13.1578C46.2873 13.1005 46.1154 13.0432 45.9578 13.0002C46.0294 13.0719 46.0581 13.1578 46.0581 13.2581C46.0438 13.4013 45.9435 13.5302 45.7859 13.5732C44.8835 13.8024 43.8522 14.2178 43.2363 14.5759L43.6087 14.9483C45.256 13.7737 46.8316 13.1865 48.3212 13.1865C49.8968 13.1865 50.8995 13.8453 51.3292 14.1318C52.1743 14.6761 52.6756 15.9796 52.6183 17.4549C52.604 17.6411 52.4608 17.7987 52.2602 17.7987C52.2029 17.7987 52.1313 17.7844 52.074 17.7414C50.2836 16.6814 48.135 16.5382 46.4591 16.5382C46.0867 16.5382 45.7143 16.5525 45.3992 16.5525H45.256C45.2846 16.5812 45.3133 16.6241 45.3276 16.6814C45.8146 16.6528 46.2586 16.6241 46.6597 16.6241C48.8226 16.6241 50.5844 17.1111 52.3605 18.1997C53.3202 18.8157 53.7212 19.9472 53.6353 21.752C53.621 21.9382 53.4634 22.0958 53.2915 22.0958C53.2629 22.0958 53.2342 22.0958 53.2056 22.0815C53.2772 22.239 53.3345 22.4252 53.3632 22.6114C53.3775 22.7403 53.3488 22.8549 53.2629 22.9552C53.1913 23.0268 53.1053 23.0698 53.0051 23.0698C52.9907 23.0698 52.9764 23.0698 52.9478 23.0698C52.5181 22.9982 52.3605 22.9838 51.9594 22.9266C51.8305 22.9122 51.7589 22.812 51.7303 22.769C51.4151 22.3106 49.596 20.5488 46.5021 20.3626H46.4878L45.9721 20.7494C46.0294 20.7494 46.0867 20.7494 46.144 20.7494C47.2613 20.7494 49.3525 20.9356 50.6846 22.1387C50.7849 22.239 50.8279 22.3822 50.7706 22.5255C50.7133 22.6687 50.5844 22.7547 50.4268 22.7547C50.4125 22.7547 50.3982 22.7547 50.3982 22.7547C49.8539 22.6974 49.2666 22.6687 48.6936 22.6687C47.8056 22.6687 46.9891 22.7403 46.5164 22.8406C46.4162 22.8693 46.2873 22.8979 46.1297 22.9266C44.4682 23.256 40.5578 24.0438 39.0252 29.3149C38.9679 29.5011 38.7817 29.6157 38.5238 29.6157C38.223 29.6157 37.9079 29.4725 37.8649 29.186C37.6644 27.9971 37.822 25.5764 41.2597 22.6974L41.1021 22.4109L40.9732 22.5541C40.8013 22.7403 40.6008 22.9266 40.4002 23.1414C38.8819 24.674 36.7907 26.7653 37.8793 30.4608C37.9079 30.5754 37.8936 30.6757 37.822 30.7759C37.6787 30.8189 37.5785 30.8762 37.4639 30.8762Z" fill="#44BE4C"/>
<path d="M43.7656 11.5108C45.5561 11.5108 47.5614 11.7543 48.8792 12.6137C48.9938 12.6853 48.9365 12.8715 48.8076 12.8715C48.7933 12.8715 48.7932 12.8715 48.7789 12.8715C48.4208 12.8142 48.0914 12.7712 47.7333 12.7712C47.3752 12.7712 47.0028 12.8142 46.5301 12.9145C46.5158 12.9145 46.5158 12.9145 46.5015 12.9145C46.4871 12.9145 46.4728 12.9145 46.4585 12.9002C45.3126 12.4991 44.3386 12.3559 43.3789 12.3559C42.8919 12.3559 42.4049 12.3845 41.8892 12.4418C41.789 12.4561 41.7317 12.5564 41.7747 12.6423L41.8033 12.6996C41.832 12.7426 41.8749 12.7856 41.9322 12.7856C42.276 12.7712 42.8633 12.714 43.4935 12.714C44.2383 12.714 45.0548 12.7856 45.6564 13.0577C45.7996 13.115 45.771 13.2726 45.6277 13.3155C44.6824 13.559 43.5794 14.0031 42.9349 14.3898C42.8633 14.4328 42.8489 14.5331 42.8919 14.5904L43.3789 15.0774C43.4076 15.106 43.4505 15.1347 43.4935 15.1347C43.5221 15.1347 43.5508 15.1203 43.5794 15.106C45.4558 13.7596 47.0028 13.3442 48.2203 13.3442C49.71 13.3442 50.6983 13.9744 51.1137 14.2466C51.9588 14.7909 52.3598 16.0943 52.3025 17.3691C52.3025 17.4551 52.2309 17.4981 52.1593 17.4981C52.1307 17.4981 52.1163 17.4981 52.0877 17.4837C50.2829 16.4095 48.1057 16.2519 46.3582 16.2519C45.8426 16.2519 45.3699 16.2662 44.9402 16.2662C44.8113 16.2662 44.754 16.4238 44.8542 16.5097L44.9832 16.61C44.9975 16.6243 45.0118 16.653 45.0261 16.6673L45.0405 16.7246C45.0548 16.7819 45.1121 16.8105 45.1694 16.8105C45.1694 16.8105 45.1694 16.8105 45.1837 16.8105C45.642 16.7819 46.1004 16.7532 46.5588 16.7532C48.3779 16.7532 50.1683 17.0827 52.1593 18.3002C52.9614 18.8158 53.4198 19.7755 53.3339 21.6662C53.3339 21.7379 53.2622 21.7952 53.2049 21.7952C53.1906 21.7952 53.1906 21.7952 53.1763 21.7952C52.7036 21.6806 52.3025 20.5204 51.2426 20.1336C51.2283 20.1336 51.2139 20.1193 51.1996 20.1193C51.085 20.1193 51.0134 20.2769 51.1137 20.3628C51.7582 20.9214 52.9041 21.4514 53.0617 22.5686C53.076 22.6689 53.0187 22.7835 52.9328 22.7835H52.9185C52.4744 22.7119 52.3169 22.6975 51.9301 22.6403C51.9015 22.6403 51.8728 22.6116 51.8585 22.583C51.615 22.2249 49.8102 20.2768 46.4585 20.0906C46.4298 20.0906 46.4012 20.0763 46.3869 20.0763L45.5991 20.6636C45.4845 20.7495 45.5418 20.9071 45.685 20.9071C45.8139 20.9071 45.9428 20.8928 46.0861 20.8928C47.4898 20.8928 49.3232 21.1792 50.4834 22.2249C50.5837 22.3108 50.5121 22.4684 50.3832 22.4684H50.3689C49.7959 22.4111 49.2086 22.3824 48.65 22.3824C47.7333 22.3824 46.9025 22.454 46.4298 22.5686C45.198 22.8694 40.4999 23.2991 38.781 29.1862C38.7524 29.2864 38.6235 29.3437 38.4802 29.3437C38.2797 29.3437 38.0505 29.2435 38.0219 29.0859C37.8213 27.9543 37.9789 25.6053 41.3879 22.7692C41.4452 22.7262 41.4595 22.6546 41.4166 22.5973C41.3449 22.4684 41.2733 22.3251 41.1731 22.1533C41.1444 22.1103 41.1014 22.0816 41.0441 22.0816C41.0012 22.0816 40.9725 22.096 40.9439 22.1246C40.8723 22.1962 40.815 22.2678 40.7434 22.3395C39.2823 23.9151 36.3317 26.1352 37.6065 30.4467C37.6351 30.5469 37.5635 30.6329 37.4776 30.6329C37.4489 30.6329 37.4346 30.6329 37.4059 30.6185C35.8447 29.6588 35.4006 27.9257 35.7587 25.8774C35.9736 24.5883 37.1338 22.6116 38.4802 21.4514C39.0675 20.9357 39.5688 20.549 39.9842 20.2625C40.0415 20.2196 40.0558 20.1479 40.0272 20.0906C39.9412 19.9331 39.8553 19.7469 39.7693 19.5607C39.7407 19.5034 39.6977 19.4747 39.6404 19.4747C39.5975 19.4747 39.5402 19.5034 39.5258 19.5463C39.4542 19.7039 39.354 19.8471 39.225 19.9617C38.7524 20.4201 38.5948 20.4631 38.4945 20.4631C38.4659 20.4631 38.4516 20.4631 38.4372 20.4631C38.3513 20.4631 38.2654 20.506 37.8929 20.993C36.9189 22.1676 35.9879 23.2705 35.4436 24.3877C34.7561 25.8201 34.7704 27.3384 34.9852 28.427C34.9996 28.5273 34.9279 28.5989 34.842 28.5989C34.8134 28.5989 34.7704 28.5846 34.7417 28.5559C33.2378 26.923 31.9916 23.3135 36.7757 18.6583C36.7757 18.6583 36.7757 18.6583 36.79 18.644C37.4346 18.0997 38.294 17.4981 38.7953 17.14C38.8383 17.1113 38.867 17.054 38.8526 16.9967C38.824 16.8248 38.7953 16.6386 38.7953 16.4524C38.5662 16.61 38.1508 16.8965 37.4346 17.3691C37.4346 17.3691 37.4346 17.3691 37.4203 17.3691C33.7964 20.2196 33.0802 22.6546 32.8797 23.9151C32.8653 23.9867 32.808 24.0296 32.7364 24.0296C32.6935 24.0296 32.6362 24.001 32.6075 23.958C31.6908 22.2822 32.894 20.8211 33.2664 20.2768C33.2664 20.2768 33.2664 20.2768 33.2664 20.2625C34.9709 18.114 37.3773 16.7246 38.1651 16.4238C38.3656 16.3522 38.5232 16.3092 38.6521 16.2805C38.7237 16.2662 38.7667 16.2089 38.7667 16.1373C38.7667 16.037 38.7667 15.9511 38.7667 15.8938C38.7667 15.8079 38.6951 15.7506 38.6235 15.7506C38.6091 15.7506 38.5805 15.7506 38.5662 15.7649C38.5375 15.7792 38.5232 15.7792 38.4945 15.7935C37.0049 16.2949 34.5699 18.0567 33.2807 19.4747C33.2521 19.5034 33.2091 19.5177 33.1805 19.5177C33.1088 19.5177 33.0372 19.4604 33.0372 19.3888C33.0086 18.1999 34.0828 16.8821 34.6558 16.3665C35.2144 15.8652 37.4203 14.4758 38.867 13.7023C38.9099 13.688 38.9242 13.645 38.9386 13.602C38.9529 13.5304 38.9672 13.4731 38.9815 13.4015C38.9099 13.4301 38.8526 13.4588 38.7953 13.4731C38.3799 13.602 36.6325 14.4328 35.6012 15.0201C35.5725 15.0344 35.5582 15.0344 35.5295 15.0344C35.4293 15.0344 35.3433 14.9198 35.4149 14.8195C36.1168 13.8026 37.5778 12.8572 38.7094 12.4705C38.7953 12.4418 38.8813 12.4275 38.9672 12.4275C39.1964 12.4275 39.4113 12.5134 39.5975 12.5994C39.6118 12.6137 39.6404 12.6137 39.6548 12.6137H39.6691L40.7147 12.4705L40.729 12.4418C39.9699 12.3988 39.9412 12.0551 39.9699 11.8975C39.9842 11.8402 40.0128 11.8116 40.0701 11.7972C40.5428 11.7543 42.0468 11.5108 43.7656 11.5108ZM43.7656 11.0811C42.0468 11.0811 40.4855 11.3102 39.9412 11.4678C39.7264 11.5251 39.5831 11.697 39.5402 11.9118C39.5258 11.9978 39.5258 12.098 39.5402 12.184C39.3396 12.1124 39.1534 12.0694 38.9672 12.0694C38.824 12.0694 38.6951 12.0837 38.5662 12.1267C37.4203 12.5134 35.8447 13.5161 35.0569 14.6476C34.9423 14.8195 34.9279 15.0487 35.0139 15.2349C35.0712 15.3352 35.1428 15.4068 35.2287 15.4641C34.842 15.7219 34.5412 15.9511 34.3693 16.1087C33.7391 16.6673 32.5789 18.0997 32.6075 19.4604C32.6075 19.7039 32.7651 19.9044 32.9943 19.9761C32.9799 20.0047 32.9513 20.019 32.937 20.0477C32.9226 20.062 32.9226 20.0763 32.9083 20.0763C32.8797 20.1193 32.851 20.1623 32.8224 20.2052C32.3497 20.8641 31.2611 22.4111 32.2351 24.2015C32.3354 24.3877 32.5216 24.5023 32.7364 24.5023C32.8224 24.5023 32.9083 24.488 32.9799 24.445C32.9656 24.5453 32.9656 24.6312 32.9513 24.7315C32.8367 26.8228 33.8107 28.2122 34.4123 28.8567C34.5269 28.9713 34.6701 29.0429 34.8277 29.0429C34.9996 29.0429 35.1571 28.9713 35.2717 28.8281C35.329 28.7565 35.372 28.6848 35.3863 28.5989C35.6728 29.6159 36.26 30.418 37.1624 30.9766C37.2484 31.0339 37.3486 31.0626 37.4632 31.0626C37.6351 31.0626 37.807 30.9766 37.9216 30.8334C38.0362 30.6902 38.0648 30.5039 38.0075 30.3321C37.9359 30.0742 37.8643 29.8164 37.8213 29.5729C37.9932 29.7018 38.2224 29.7734 38.4516 29.7734C38.8097 29.7734 39.0818 29.6016 39.1534 29.3151C40.6574 24.1729 44.4675 23.3994 46.1004 23.07C46.258 23.0413 46.3869 23.0127 46.5015 22.984C46.9455 22.8694 47.7476 22.8121 48.6214 22.8121C49.18 22.8121 49.7673 22.8408 50.2972 22.8838C50.3116 22.8838 50.3402 22.8838 50.3545 22.8838C50.598 22.8838 50.8129 22.7405 50.8988 22.5113C50.9275 22.4254 50.9418 22.3251 50.9275 22.2249C51.2139 22.4684 51.4002 22.6832 51.4861 22.7978C51.5864 22.9411 51.7153 23.027 51.8585 23.0413C52.2596 23.0986 52.4028 23.1129 52.8468 23.1846C52.8755 23.1846 52.9041 23.1846 52.9328 23.1846C53.0903 23.1846 53.2479 23.1129 53.3482 22.9983C53.4628 22.8551 53.5201 22.6689 53.4914 22.4827C53.4771 22.3681 53.4484 22.2678 53.4198 22.1676C53.6203 22.0816 53.7636 21.8954 53.7779 21.6662C53.8782 19.7755 53.4341 18.5867 52.4028 17.9278C52.3742 17.9134 52.3598 17.8991 52.3312 17.8848C52.5604 17.8132 52.7323 17.6126 52.7466 17.3548C52.8182 15.7935 52.2882 14.4471 51.3715 13.8455C51.0564 13.645 50.3545 13.1866 49.3232 12.9718C49.3519 12.9288 49.3662 12.8858 49.3805 12.8429C49.4521 12.5994 49.3519 12.3415 49.137 12.1983C47.6187 11.2959 45.3699 11.0954 43.7656 11.0811ZM43.4935 14.576C43.6081 14.5187 43.7227 14.4614 43.8373 14.4041C43.737 14.4758 43.6367 14.5474 43.5221 14.619L43.4935 14.576Z" fill="black"/>
<path d="M42.2347 24.9027C41.9626 24.9027 41.7477 24.831 41.6045 24.6878C41.3897 24.473 41.404 24.1578 41.4183 23.9287C41.4183 23.8714 41.4183 23.8284 41.4183 23.7854C41.404 23.6565 41.404 23.456 41.4183 23.1409C41.4183 22.4533 41.4183 21.3074 41.3467 19.5456V19.4167L41.4469 19.3451C41.5329 19.2878 42.2634 18.8008 42.7218 18.8008C42.908 18.8008 43.0225 18.8867 43.0798 18.9583C43.1515 19.0443 43.4523 19.4024 43.8247 19.8464C44.7127 20.892 45.9159 22.3387 46.1451 22.6538C46.3313 22.9117 46.317 23.1265 46.2883 23.2698C46.2024 23.5849 45.8873 23.7568 45.7154 23.8284C45.6724 23.8427 44.6841 24.2724 43.6958 24.5302C43.0512 24.7881 42.5785 24.9027 42.2347 24.9027Z" fill="#FCEE21"/>
<path d="M42.7081 19.0303C42.794 19.0303 42.8513 19.0446 42.8943 19.1019C43.1378 19.4027 45.6301 22.3391 45.9452 22.7974C46.2604 23.2558 45.8736 23.5423 45.6015 23.6568C45.3293 23.7714 44.4413 24.1295 43.5962 24.3587C42.9516 24.6022 42.5219 24.7025 42.2354 24.7025C41.4763 24.7025 41.6625 24.0722 41.6481 23.7858C41.6195 23.3847 41.6911 22.1099 41.5622 19.5459C41.5622 19.5316 42.307 19.0303 42.7081 19.0303ZM42.7081 18.6006C42.2211 18.6006 41.5192 19.0446 41.3187 19.1735L41.1182 19.3024L41.1325 19.5459C41.2184 21.3078 41.2184 22.4537 41.2041 23.1412C41.2041 23.4563 41.2041 23.6568 41.2041 23.8001C41.2041 23.8287 41.2041 23.8717 41.2041 23.929C41.1898 24.1582 41.1755 24.5449 41.4476 24.8457C41.6338 25.0319 41.8916 25.1322 42.2211 25.1322C42.5935 25.1322 43.0805 25.0176 43.7251 24.7741C44.7421 24.5019 45.7304 24.0722 45.7734 24.0579C45.9882 23.972 46.3606 23.7571 46.4752 23.356C46.5325 23.1698 46.5325 22.8834 46.3033 22.5539C46.0885 22.2531 45.0858 21.0499 43.9686 19.7322C43.5962 19.2881 43.2954 18.93 43.2237 18.8441C43.1521 18.7438 42.9946 18.6006 42.7081 18.6006Z" fill="black"/>
<path d="M39.9842 22.5822C39.0961 22.5822 38.1651 22.1238 37.5635 21.379C36.9905 20.6771 36.7757 19.832 36.9619 18.9869L37.0048 18.815C37.2627 17.5975 38.0361 13.8734 39.225 11.1375L39.311 10.937L39.5115 11.023C40.772 11.6102 46.0288 16.0506 46.4871 16.5089C47.2033 17.2251 47.4038 18.2278 47.0028 19.1874C46.5731 20.2187 45.6134 20.8776 44.5248 20.8776C43.8659 20.8776 43.207 20.6341 42.5624 20.1614C42.2043 21.6941 41.259 22.5822 39.9842 22.5822Z" fill="#FCEE21"/>
<path d="M39.4119 11.2236C40.658 11.7965 45.9005 16.2512 46.3159 16.6666C47.8055 18.1562 46.5307 20.6629 44.5111 20.6629C43.8665 20.6629 43.1503 20.4051 42.4198 19.7748C42.1047 21.6369 41.0591 22.3674 39.9848 22.3674C38.4235 22.3674 36.7906 20.8348 37.1631 19.03C37.3779 18.0703 38.18 14.0883 39.4119 11.2236ZM39.197 10.6506L39.0251 11.0517C37.8363 13.8162 37.0485 17.5403 36.7906 18.7722L36.7477 18.944C36.5615 19.8464 36.7906 20.7631 37.3922 21.5223C38.0368 22.3101 39.0251 22.8114 39.9848 22.8114C41.2739 22.8114 42.248 21.9663 42.692 20.5196C43.2793 20.8921 43.9095 21.0926 44.5254 21.0926C45.6856 21.0926 46.7456 20.3764 47.2039 19.2592C47.6337 18.2279 47.4188 17.1249 46.6453 16.3515C46.1726 15.8788 40.9302 11.4384 39.6124 10.8225L39.197 10.6506Z" fill="black"/>
<path d="M125.198 21.0086H130.277V22.9737H125.198V21.0086ZM125.379 26.8284H122.93V16.2469H130.927V18.2121H125.379V26.8284ZM130.766 26.8284L135.482 16.2469H137.901L142.632 26.8284H140.063L136.193 17.4865H137.16L133.275 26.8284H130.766ZM133.124 24.5609L133.774 22.7016H139.216L139.881 24.5609H133.124ZM143.73 26.8284V16.2469H146.179V26.8284H143.73ZM148.69 26.8284V16.2469H153.27C154.218 16.2469 155.034 16.4031 155.719 16.7155C156.405 17.0179 156.934 17.4562 157.307 18.0307C157.679 18.6051 157.866 19.2904 157.866 20.0865C157.866 20.8725 157.679 21.5528 157.307 22.1272C156.934 22.6915 156.405 23.1249 155.719 23.4272C155.034 23.7295 154.218 23.8807 153.27 23.8807H150.051L151.139 22.8074V26.8284H148.69ZM155.417 26.8284L152.772 22.9888H155.387L158.062 26.8284H155.417ZM151.139 23.0795L150.051 21.9307H153.134C153.89 21.9307 154.455 21.7694 154.827 21.447C155.2 21.1144 155.387 20.6609 155.387 20.0865C155.387 19.502 155.2 19.0485 154.827 18.726C154.455 18.4035 153.89 18.2423 153.134 18.2423H150.051L151.139 17.0783V23.0795Z" fill="white"/>
<path d="M127.994 41.6339C127.208 41.6339 126.478 41.5029 125.803 41.2409C125.137 40.9688 124.558 40.5909 124.064 40.1072C123.57 39.6235 123.187 39.0591 122.915 38.4142C122.643 37.7591 122.507 37.0436 122.507 36.2676C122.507 35.4917 122.643 34.7812 122.915 34.1362C123.187 33.4812 123.57 32.9118 124.064 32.4281C124.568 31.9444 125.153 31.5715 125.818 31.3095C126.483 31.0374 127.208 30.9013 127.994 30.9013C128.74 30.9013 129.436 31.0223 130.08 31.2641C130.736 31.506 131.295 31.8738 131.758 32.3676L131.275 32.8665C130.821 32.423 130.317 32.1056 129.763 31.9141C129.219 31.7126 128.639 31.6118 128.025 31.6118C127.349 31.6118 126.72 31.7277 126.135 31.9595C125.561 32.1913 125.057 32.5188 124.623 32.942C124.2 33.3653 123.868 33.8591 123.626 34.4234C123.394 34.9878 123.278 35.6025 123.278 36.2676C123.278 36.9328 123.394 37.5475 123.626 38.1118C123.868 38.6762 124.2 39.17 124.623 39.5932C125.057 40.0165 125.561 40.344 126.135 40.5758C126.72 40.8076 127.349 40.9235 128.025 40.9235C128.639 40.9235 129.219 40.8277 129.763 40.6363C130.317 40.4347 130.821 40.1072 131.275 39.6537L131.758 40.1525C131.295 40.6463 130.736 41.0192 130.08 41.2711C129.436 41.513 128.74 41.6339 127.994 41.6339ZM132.291 41.5583L137.159 30.9769H137.93L142.797 41.5583H141.966L137.371 31.4606H137.703L133.123 41.5583H132.291ZM134.075 38.5804L134.332 37.9304H140.666L140.923 38.5804H134.075ZM147.5 41.6339C146.714 41.6339 145.968 41.5029 145.262 41.2409C144.567 40.9688 144.028 40.6211 143.645 40.1979L143.993 39.6235C144.355 39.9963 144.849 40.3138 145.474 40.5758C146.109 40.8277 146.779 40.9537 147.485 40.9537C148.19 40.9537 148.764 40.863 149.208 40.6816C149.661 40.4901 149.994 40.2382 150.206 39.9258C150.427 39.6134 150.538 39.2657 150.538 38.8828C150.538 38.4293 150.417 38.0665 150.175 37.7944C149.933 37.5223 149.616 37.3056 149.223 37.1444C148.83 36.9831 148.402 36.8471 147.938 36.7362C147.474 36.6254 147.006 36.5095 146.532 36.3886C146.059 36.2576 145.625 36.0913 145.232 35.8897C144.839 35.6882 144.522 35.4161 144.28 35.0734C144.048 34.7207 143.932 34.2672 143.932 33.713C143.932 33.2091 144.063 32.7455 144.325 32.3223C144.587 31.899 144.995 31.5564 145.55 31.2944C146.104 31.0323 146.814 30.9013 147.681 30.9013C148.266 30.9013 148.84 30.987 149.404 31.1583C149.979 31.3296 150.468 31.5614 150.871 31.8537L150.583 32.4734C150.14 32.1711 149.661 31.9494 149.147 31.8083C148.643 31.6571 148.155 31.5816 147.681 31.5816C147.006 31.5816 146.447 31.6773 146.003 31.8688C145.56 32.0603 145.232 32.3172 145.021 32.6397C144.809 32.9521 144.703 33.3048 144.703 33.6979C144.703 34.1513 144.819 34.5141 145.051 34.7862C145.293 35.0583 145.61 35.275 146.003 35.4362C146.396 35.5975 146.83 35.7335 147.303 35.8444C147.777 35.9552 148.245 36.0762 148.709 36.2072C149.173 36.3281 149.601 36.4893 149.994 36.6909C150.387 36.8924 150.704 37.1645 150.946 37.5072C151.188 37.8498 151.309 38.2932 151.309 38.8374C151.309 39.3312 151.173 39.7948 150.901 40.2281C150.629 40.6514 150.211 40.994 149.646 41.256C149.092 41.508 148.376 41.6339 147.5 41.6339ZM153.93 41.5583V30.9769H154.701V41.5583H153.93ZM158.388 41.5583V30.9769H159.038L166.581 40.606H166.233V30.9769H167.004V41.5583H166.369L158.811 31.9292H159.159V41.5583H158.388ZM175.189 41.6339C174.403 41.6339 173.672 41.5029 172.997 41.2409C172.332 40.9688 171.748 40.5909 171.244 40.1072C170.75 39.6134 170.367 39.044 170.095 38.399C169.823 37.744 169.687 37.0335 169.687 36.2676C169.687 35.5017 169.823 34.7963 170.095 34.1513C170.367 33.4963 170.75 32.9269 171.244 32.4432C171.748 31.9494 172.332 31.5715 172.997 31.3095C173.672 31.0374 174.403 30.9013 175.189 30.9013C175.975 30.9013 176.701 31.0374 177.366 31.3095C178.041 31.5715 178.625 31.9444 179.119 32.4281C179.613 32.9118 179.996 33.4812 180.268 34.1362C180.55 34.7812 180.691 35.4917 180.691 36.2676C180.691 37.0436 180.55 37.7591 180.268 38.4142C179.996 39.0591 179.613 39.6235 179.119 40.1072C178.625 40.5909 178.041 40.9688 177.366 41.2409C176.701 41.5029 175.975 41.6339 175.189 41.6339ZM175.189 40.9235C175.864 40.9235 176.489 40.8076 177.063 40.5758C177.638 40.344 178.137 40.0165 178.56 39.5932C178.983 39.17 179.311 38.6762 179.543 38.1118C179.784 37.5475 179.905 36.9328 179.905 36.2676C179.905 35.5924 179.784 34.9777 179.543 34.4234C179.311 33.8591 178.983 33.3653 178.56 32.942C178.137 32.5188 177.638 32.1913 177.063 31.9595C176.489 31.7277 175.864 31.6118 175.189 31.6118C174.514 31.6118 173.889 31.7277 173.315 31.9595C172.74 32.1913 172.236 32.5188 171.803 32.942C171.38 33.3653 171.047 33.8591 170.805 34.4234C170.574 34.9777 170.458 35.5924 170.458 36.2676C170.458 36.9328 170.574 37.5475 170.805 38.1118C171.047 38.6762 171.38 39.17 171.803 39.5932C172.236 40.0165 172.74 40.344 173.315 40.5758C173.889 40.8076 174.514 40.9235 175.189 40.9235Z" fill="white"/>
<path d="M112.963 42.4749L112.963 16.5759C112.963 16.5109 112.84 16.4583 112.688 16.4583L112.273 16.4583C112.122 16.4583 111.999 16.5109 111.999 16.5759L111.999 42.4749C111.999 42.5398 112.122 42.5925 112.273 42.5925L112.688 42.5925C112.84 42.5925 112.963 42.5398 112.963 42.4749Z" fill="#474747"/>
<path d="M112.386 5.39538C112.435 5.24442 112.649 5.24442 112.698 5.39538L113.885 9.04835C113.907 9.11586 113.97 9.16157 114.041 9.16157H117.882C118.04 9.16157 118.106 9.36469 117.978 9.45799L114.87 11.7156C114.813 11.7574 114.789 11.8313 114.811 11.8988L115.998 15.5518C116.047 15.7028 115.874 15.8283 115.746 15.735L112.638 13.4773C112.581 13.4356 112.503 13.4356 112.446 13.4773L109.338 15.735C109.21 15.8283 109.037 15.7028 109.086 15.5518L110.273 11.8988C110.295 11.8313 110.271 11.7574 110.214 11.7156L107.106 9.45799C106.978 9.36469 107.044 9.16157 107.202 9.16157H111.043C111.114 9.16157 111.177 9.11586 111.199 9.04835L112.386 5.39538Z" fill="#FDEE21"/>
<path d="M102.146 7.03381C102.195 6.88285 102.408 6.88285 102.457 7.03381L103 8.7054C103.022 8.77292 103.085 8.81863 103.156 8.81863H104.914C105.073 8.81863 105.139 9.02174 105.01 9.11504L103.588 10.1481C103.531 10.1899 103.507 10.2638 103.529 10.3313L104.072 12.0029C104.121 12.1539 103.948 12.2794 103.82 12.1861L102.398 11.153C102.34 11.1113 102.263 11.1113 102.205 11.153L100.783 12.1861C100.655 12.2794 100.482 12.1539 100.531 12.0029L101.074 10.3313C101.096 10.2638 101.072 10.1899 101.015 10.1481L99.5928 9.11504C99.4644 9.02174 99.5304 8.81863 99.6891 8.81863H101.447C101.518 8.81863 101.581 8.77292 101.603 8.7054L102.146 7.03381Z" fill="#FDEE21"/>
<rect x="14.6386" y="1.63855" width="185.157" height="52.4337" stroke="#42C150" stroke-width="3.27711"/>
<path d="M122.219 6.97522C122.272 6.83175 122.475 6.83175 122.527 6.97522L123.162 8.71102C123.185 8.77564 123.247 8.81863 123.316 8.81863H125.324C125.487 8.81863 125.55 9.0315 125.413 9.12013L123.822 10.1471C123.758 10.1886 123.731 10.2691 123.757 10.341L124.372 12.0235C124.426 12.1711 124.262 12.3026 124.13 12.2174L122.462 11.1405C122.408 11.1055 122.338 11.1055 122.284 11.1405L120.617 12.2174C120.485 12.3026 120.32 12.1711 120.374 12.0235L120.989 10.341C121.015 10.2691 120.988 10.1886 120.924 10.1471L119.334 9.12013C119.197 9.0315 119.259 8.81863 119.423 8.81863H121.431C121.5 8.81863 121.561 8.77564 121.585 8.71102L122.219 6.97522Z" fill="#FDEE21"/>
<g clip-path="url(#clip1_162_5257)">
<path d="M158.012 49.5072C158.012 49.5072 161.311 49.2261 163.373 52.2271C165.434 55.2281 173.467 67.2879 173.467 67.2879C173.467 67.2879 173.983 67.8741 174.403 67.888C175.038 67.8943 175.372 67.2879 175.372 67.2879C175.372 67.2879 181.065 57.2901 191.349 46.6258C199.518 38.1534 213.55 27.7805 215.533 26.6634C220.012 24.14 211.552 26.2818 211.552 26.2818C211.552 26.2818 203.683 29.3882 194.304 35.874C186.313 41.4001 176.252 51.2299 174.847 53.6811C173.139 50.9932 170.283 47.5418 167.591 46.8978C162.381 45.6507 158.666 46.3747 158.012 49.5072Z" fill="#202020"/>
<path d="M158.304 48.7045C158.304 48.7045 162 48.1055 164.062 51.1065C166.124 54.1075 173.668 65.4917 173.668 65.4917C173.668 65.4917 174.185 66.0778 174.604 66.0918C175.239 66.098 175.574 65.4917 175.574 65.4917C175.574 65.4917 181.267 55.4939 191.55 44.8295C199.72 36.3572 212.648 26.8914 214.631 25.7741C219.111 23.2507 211.273 25.5052 211.273 25.5052C211.273 25.5052 203.884 27.5919 194.506 34.0775C186.514 39.6036 176.454 49.4334 175.048 51.8847C173.341 49.1968 170.484 45.7453 167.793 45.1013C162.583 43.8546 158.957 45.572 158.304 48.7045Z" fill="#FDEE21"/>
</g>
</g>
</g>
<defs>
<clipPath id="clip0_162_5257">
<rect width="204" height="68" fill="white" transform="translate(13)"/>
</clipPath>
<clipPath id="clip1_162_5257">
<rect width="59.4217" height="43.9204" fill="white" transform="translate(158.012 24.5784)"/>
</clipPath>
</defs>
</svg>
