<svg width="255" height="43" viewBox="0 0 255 43" fill="none" xmlns="http://www.w3.org/2000/svg">
<path d="M77.8444 0.35712C78.2827 0.0823576 78.7896 -0.0633698 79.307 -0.0633698C79.8243 -0.0633698 80.3312 0.0823571 80.7696 0.35712C81.2065 0.630939 81.5576 1.02187 81.7832 1.4854L82.6502 3.2582L84.6421 3.54704L84.6689 3.55164C85.0596 3.61874 85.4312 3.76938 85.7583 3.99329C86.0854 4.21721 86.3603 4.50909 86.5642 4.84897C86.7682 5.18884 86.8963 5.56876 86.94 5.96279C86.9524 6.07464 86.9578 6.18688 86.9565 6.29887C87.0393 6.66896 87.0688 7.05004 87.0432 7.4305C87.004 8.01326 86.8366 8.58016 86.5529 9.09071L86.3905 9.38308L84.887 10.7694L85.0313 11.6172C85.0992 11.9853 85.0886 12.3635 85.0003 12.727L85.0341 12.9263L85.0345 12.929C85.1204 13.4318 85.0649 13.9486 84.8742 14.4218C84.6831 14.8958 84.364 15.3073 83.9524 15.6103C83.5409 15.9132 83.0531 16.0957 82.5438 16.1372C82.0344 16.1788 81.5236 16.0778 81.0683 15.8456L81.0555 15.839L79.28 14.902L77.5046 15.839L77.4917 15.8456C77.0365 16.0778 76.5256 16.1788 76.0163 16.1372C75.507 16.0957 75.0192 15.9132 74.6077 15.6103C74.1961 15.3073 73.8769 14.8958 73.6859 14.4218C73.4953 13.9488 73.4397 13.4321 73.5255 12.9293L73.526 12.9263L73.5598 12.727C73.4715 12.3635 73.4609 11.9854 73.5287 11.6173L73.6789 10.7349L72.2922 9.38613L72.1543 9.1585C71.8494 8.65545 71.6571 8.09235 71.5906 7.50792C71.5421 7.08217 71.5613 6.65243 71.6463 6.23446C71.6482 6.08156 71.6628 5.9287 71.6901 5.77748C71.7578 5.40327 71.9023 5.04709 72.1145 4.73142C72.3266 4.41576 72.6019 4.14748 72.9228 3.94348C73.2438 3.73947 73.6035 3.60414 73.9794 3.54603L73.989 3.54454L75.9533 3.25973L76.8334 1.4799C77.0591 1.01878 77.4092 0.629854 77.8444 0.35712Z" fill="white"/>
<path fill-rule="evenodd" clip-rule="evenodd" d="M143.319 11.7776C144.154 11.0019 145.252 10.5708 146.392 10.5708C147.533 10.5708 148.631 11.0019 149.466 11.7776C150.296 12.5474 150.806 13.6 150.896 14.7271C150.915 14.9269 150.919 15.1276 150.909 15.3278C150.916 15.4687 150.915 15.6098 150.908 15.7506C150.928 16.3121 150.843 16.873 150.657 17.4042C150.451 17.9908 150.127 18.5288 149.704 18.9843C149.281 19.4399 148.769 19.8033 148.199 20.0518C147.629 20.3004 147.014 20.4286 146.392 20.4286C145.771 20.4286 145.156 20.3004 144.586 20.0518C144.016 19.8033 143.504 19.4399 143.081 18.9843C142.658 18.5288 142.334 17.9908 142.128 17.4042C141.942 16.8729 141.857 16.3121 141.877 15.7506C141.87 15.6098 141.869 15.4687 141.876 15.3278C141.866 15.1276 141.87 14.9268 141.889 14.7271C141.979 13.6 142.489 12.5474 143.319 11.7776ZM148.823 14.9079L146.748 15.0625C146.742 14.9727 146.701 14.8887 146.635 14.8274C146.569 14.7662 146.483 14.7321 146.392 14.7321C146.302 14.7321 146.216 14.7662 146.15 14.8274C146.084 14.8887 146.043 14.9727 146.037 15.0625L146.035 15.0893L146.032 15.116V15.1173L146.053 15.3233L146.033 15.5274L146.05 15.7045L146.037 15.884C146.033 15.9329 146.039 15.9821 146.056 16.0284C146.072 16.0748 146.098 16.1173 146.131 16.1533C146.164 16.1892 146.205 16.218 146.25 16.2376C146.295 16.2572 146.343 16.2673 146.392 16.2673C146.442 16.2673 146.49 16.2572 146.535 16.2376C146.58 16.218 146.621 16.1892 146.654 16.1533C146.687 16.1173 146.713 16.0748 146.729 16.0284C146.746 15.9821 146.752 15.9329 146.748 15.884L146.735 15.7045L146.752 15.5274L146.732 15.3233L146.753 15.1173V15.116L148.823 14.9079Z" fill="white"/>
<path d="M250.027 23.85C250.849 9.10366 236.951 4.63263 226.972 13.3862C222.514 8.61885 216.118 11.1372 212.778 14.2076C208.738 6.30253 197.627 6.94895 191.231 11.2988C189.751 10.3521 188.067 9.76951 186.319 9.59863C184.57 9.42776 182.806 9.67348 181.171 10.3157C178.033 9.04979 171.744 9.61541 169.71 11.8509C161.63 4.8077 147.234 11.3122 146.938 21.9107C146.709 21.9107 146.507 21.803 146.264 21.7761C148.177 10.3157 139.396 4.49796 130.293 11.4065C124.677 3.85155 113.419 7.44722 108.934 14.0999C106.901 9.64234 100.692 8.71312 96.6252 10.3561C92.9891 8.75352 85.4342 10.1137 84.0875 13.0495C80.1551 10.9082 75.132 12.8205 72.5463 14.9618C68.7351 9.575 58.9716 11.016 54.7026 15.1369C51.1742 6.49107 39.054 7.91857 33.3575 13.4131C29.8022 -4.5653 3.12413 6.50454 4.82097 21.2913C2.28918 37.0207 19.7424 50.151 32.4552 38.5694C33.7262 39.7234 35.2474 40.5672 36.8993 41.0345C38.5513 41.5018 40.2891 41.5799 41.9763 41.2628C45.0602 43.2693 49.6929 43.5252 52.2516 40.5625C57.2209 44.7372 67.3346 41.3974 71.4016 38.327C74.7683 42.8115 82.054 42.8923 86.0806 39.4178C87.4611 40.3099 89.0112 40.9068 90.6335 41.171C92.2558 41.4352 93.9152 41.361 95.5075 40.953C99.2917 43.0404 103.682 41.1146 106.927 38.7983C112.772 46.2051 122.738 41.7476 128.084 36.1722C130.373 44.643 145.47 44.6564 151.099 39.6871C153.487 41.2381 156.383 41.8029 159.179 41.2628C162.802 43.7003 168.094 43.2559 170.478 39.3235C171.865 40.2581 173.435 40.8867 175.083 41.1677C176.732 41.4486 178.421 41.3755 180.04 40.953C183.676 42.9731 187.729 41.2493 190.988 39.1619C196.887 44.3063 207.97 42.7711 212.279 37.1419C215.538 41.3032 221.922 41.3301 226.11 38.704C227.381 39.8232 228.892 40.6358 230.526 41.0794C232.16 41.523 233.875 41.5857 235.537 41.2628C246.674 47.9154 250.983 32.2668 250.027 23.85Z" fill="#400645"/>
<path d="M250.028 20.6044V20.4024C250.006 18.4322 249.757 16.4711 249.287 14.5578C248.748 12.1607 247.533 9.96858 245.785 8.24178L245.381 7.86471L244.91 7.5819C243.358 6.5534 241.568 5.94124 239.712 5.80426C239.308 5.78382 238.904 5.78382 238.5 5.80426C237.08 5.8166 235.666 5.98826 234.285 6.31601H234.217H234.137C231.486 6.95501 229.046 8.26781 227.053 10.1272C226.374 9.31657 225.528 8.66226 224.573 8.20901C223.617 7.75577 222.575 7.51429 221.518 7.5011H221.262H221.006C218.106 7.59823 215.329 8.703 213.155 10.6254L212.859 10.9217C212.576 10.4638 212.307 10.006 211.997 9.57501L211.768 9.23834L211.431 8.94206C210.318 7.67392 208.946 6.65768 207.409 5.96103C205.872 5.26439 204.204 4.90336 202.516 4.90197H202.004C199.8 4.93568 197.615 5.3128 195.527 6.01973C193.971 6.41214 192.51 7.11279 191.231 8.08018C190.437 7.44794 189.519 6.98917 188.537 6.73348H188.403H188.255C186.922 6.48187 185.57 6.35115 184.214 6.34294H183.676L183.137 6.45067C182.445 6.59107 181.771 6.81256 181.131 7.11056C179.772 6.63693 178.34 6.40892 176.902 6.43721H175.73C173.52 6.42281 171.375 7.18546 169.67 8.59192C169.57 8.4645 169.462 8.34309 169.347 8.22831L168.943 7.85124L168.472 7.56843C166.906 6.5278 165.095 5.91496 163.219 5.79079C162.816 5.77005 162.411 5.77005 162.007 5.79079C160.588 5.80393 159.174 5.97557 157.792 6.30254H157.725C155.07 6.93824 152.624 8.25132 150.628 10.1137L150.547 10.1945C149.455 11.3125 148.627 12.6607 148.123 14.1403C147.65 15.5724 147.294 17.0406 147.059 18.5305C146.83 18.5305 146.628 18.4228 146.386 18.3959C146.386 17.8976 146.386 17.3724 146.386 16.8472C146.414 15.2919 146.355 13.7363 146.211 12.1876C146.141 10.3384 145.348 8.59043 144.004 7.31892C142.659 6.04741 140.87 5.35373 139.019 5.38678H138.912C136.69 5.31405 134.481 5.7421 132.448 6.63921C131.655 7.01808 130.939 7.53834 130.333 8.17445C130.225 8.03978 130.145 7.87817 130.023 7.7435L129.821 7.48763L129.593 7.25869C127.955 5.59026 125.844 4.46646 123.546 4.04009H123.29H123.034C122.536 4.04009 122.038 4.04009 121.566 4.04009C119.661 4.00939 117.77 4.38109 116.018 5.13091L115.816 5.11745L115.6 5.23865C113.418 6.42714 111.459 7.98552 109.81 9.84435C109.5 10.208 109.23 10.5177 109.002 10.8274C108.528 9.82567 107.835 8.9428 106.975 8.24367C106.115 7.54455 105.11 7.04693 104.032 6.78735H103.898L103.696 6.73348C102.363 6.48187 101.011 6.35115 99.6555 6.34294H99.1168L98.5781 6.45067C97.8856 6.59107 97.2122 6.81256 96.5715 7.11056C95.2131 6.63693 93.7812 6.40892 92.3429 6.43721H91.1713C87.2389 6.59881 85.1381 8.24178 84.0338 9.80395C82.9725 9.19107 81.7713 8.86178 80.5458 8.84779H80.29H80.0341C77.2782 8.96163 74.6329 9.96306 72.4926 11.7028C72.1123 11.1267 71.6597 10.6017 71.1459 10.1406L70.7688 9.83088L70.3379 9.57501C68.5251 8.61322 66.4899 8.14858 64.4394 8.22831C63.2469 8.24709 62.0597 8.39154 60.8975 8.65926H60.7359L60.6013 8.75352C59.0391 9.14104 57.5666 9.82698 56.2649 10.7736C55.7265 11.1318 55.2176 11.5326 54.7431 11.9721C54.1325 10.5986 53.2639 9.35511 52.1844 8.30911L51.7939 7.93204L51.3225 7.64923C49.7553 6.61198 47.9455 5.99945 46.0704 5.8716C45.6664 5.8716 45.2624 5.8716 44.8584 5.8716C43.4386 5.88394 42.0247 6.05559 40.6432 6.38334H40.5624H40.4951C37.845 7.02235 35.405 8.33515 33.4115 10.1945C33.2794 9.44547 33.1086 8.70379 32.8997 7.97244L32.8189 7.7031L32.7112 7.43376C31.879 5.37929 30.429 3.63422 28.5616 2.43997C26.6942 1.24571 24.5018 0.661314 22.2878 0.767618H21.776C17.2691 1.0106 13.0023 2.87614 9.7635 6.01973C6.63338 9.24533 4.86376 13.5512 4.82113 18.0457V19.3924C4.71084 22.154 5.02884 24.916 5.76382 27.5803C6.38449 30.0594 7.64798 32.3309 9.42683 34.1657C12.5512 37.7479 16.9953 39.5525 22.6244 39.5525H22.7187C24.7194 39.4817 26.6906 39.0482 28.5364 38.2731L29.129 38.0442L29.6273 37.7075C30.6552 37.009 31.6115 36.2105 32.4823 35.3238V35.3912C34.576 37.2113 37.2631 38.2028 40.0372 38.1788C40.6765 38.1824 41.3139 38.11 41.9361 37.9634C42.958 38.6024 44.0837 39.0581 45.2624 39.3101C45.829 39.4319 46.4066 39.4951 46.9862 39.4986C48.0584 39.5035 49.1192 39.2785 50.097 38.8387L50.73 38.5559L51.2687 38.125C51.6018 37.8591 51.9167 37.5711 52.2114 37.2631C52.5657 37.5405 52.9392 37.7925 53.3291 38.0172H53.4368H53.5446C55.2842 38.8253 57.1894 39.2128 59.1064 39.1484C60.1696 39.1253 61.2287 39.0081 62.2712 38.7983H62.5001L62.7156 38.731C65.8051 38.0323 68.7402 36.7725 71.3748 35.0141C72.1423 36.042 73.1319 36.8834 74.2697 37.4757C75.4076 38.0679 76.6645 38.3958 77.9467 38.4347C78.2565 38.4347 78.5527 38.4347 78.8625 38.4347C80.1407 38.4281 81.4126 38.2561 82.6467 37.923C83.9417 37.6475 85.1269 36.9964 86.0538 36.051C88.0569 37.344 90.4041 38.0012 92.7873 37.9364H93.0297C93.8713 37.9802 94.7148 37.9031 95.5346 37.7075C96.5552 38.3042 97.7191 38.6115 98.9013 38.5963C100.688 38.5474 102.439 38.0865 104.019 37.2496C105.065 36.7871 106.05 36.1993 106.955 35.4989C107.817 36.5999 108.893 37.5165 110.116 38.1943C111.34 38.8721 112.687 39.2973 114.079 39.4447H114.59H115.102C117.029 39.3536 118.921 38.8966 120.677 38.098C122.717 37.1665 124.62 35.9613 126.333 34.5158C126.94 33.9906 127.505 33.4654 128.017 32.9536C128.207 33.5779 128.437 34.1897 128.704 34.7852L129.229 35.9029L130.185 36.684C132.605 38.5998 135.625 39.5969 138.71 39.4986C139.275 39.4986 139.841 39.4986 140.406 39.4986C142.276 39.494 144.141 39.3273 145.982 39.0003C147.971 38.7205 149.804 37.7703 151.18 36.3069C153.029 37.4881 155.181 38.11 157.375 38.098C158.014 38.1016 158.651 38.0292 159.274 37.8826C160.294 38.5238 161.421 38.9798 162.6 39.2293C163.166 39.3525 163.744 39.4157 164.324 39.4178C165.392 39.4224 166.448 39.1974 167.421 38.7579L168.068 38.4751L168.606 38.0442C169.355 37.4379 170.017 36.7309 170.572 35.9433C170.624 35.9915 170.677 36.0365 170.734 36.078C172.737 37.3709 175.084 38.0281 177.468 37.9634H177.764C178.573 37.9431 179.375 37.8117 180.147 37.5728C181.168 38.1696 182.332 38.4768 183.514 38.4616C185.301 38.4127 187.052 37.9518 188.632 37.1149C189.498 36.7532 190.324 36.3018 191.096 35.7682C191.09 35.7903 191.09 35.8135 191.096 35.8356L191.689 36.4551L192.456 36.8591C194.935 38.2166 197.71 38.9428 200.536 38.9734H200.86H201.169C204.691 38.7454 208.07 37.4959 210.893 35.3777L211.243 35.0949L211.539 34.7717C211.822 34.4485 212.064 34.1253 212.32 33.8021C213.089 34.7867 214.066 35.5894 215.181 36.1528C216.296 36.7162 217.522 37.0263 218.771 37.0611C219.08 37.0611 219.377 37.0611 219.686 37.0611C220.965 37.0545 222.237 36.8825 223.471 36.5493C224.446 36.3389 225.365 35.921 226.164 35.3238C228.252 37.1239 230.922 38.1049 233.679 38.0846C234.318 38.0891 234.955 38.0168 235.577 37.8691C236.603 38.5106 237.734 38.9664 238.917 39.2158C239.479 39.3383 240.052 39.4015 240.628 39.4043C241.7 39.4092 242.761 39.1842 243.738 38.7444L244.371 38.4616L244.924 38.0307C247.237 36.008 248.783 33.2494 249.3 30.2199V30.0448V29.8697C249.722 27.219 249.947 24.5407 249.974 21.8569V21.6549C249.967 21.5607 249.967 21.4662 249.974 21.3721C250.014 21.1566 250.028 20.8738 250.028 20.6044Z" fill="white"/>
<path d="M250.028 21.9915V21.7895C250.006 19.8193 249.757 17.8582 249.287 15.9449C248.748 13.5478 247.533 11.3557 245.785 9.62888L245.381 9.2518L244.91 8.969C243.358 7.94049 241.568 7.32834 239.712 7.19136C239.308 7.17092 238.904 7.17092 238.5 7.19136C237.08 7.2037 235.666 7.37535 234.285 7.7031H234.217H234.137C231.486 8.34211 229.046 9.65491 227.053 11.5143C226.374 10.7037 225.528 10.0494 224.573 9.59611C223.617 9.14286 222.575 8.90138 221.518 8.88819H221.262H221.006C218.106 8.98533 215.329 10.0901 213.155 12.0125L212.859 12.3088C212.576 11.8509 212.307 11.393 211.997 10.9621L211.768 10.6254L211.431 10.3292C210.318 9.06102 208.946 8.04477 207.409 7.34813C205.872 6.65149 204.204 6.29045 202.516 6.28907H202.004C199.8 6.32278 197.615 6.69989 195.527 7.40683C193.971 7.79923 192.51 8.49989 191.231 9.46727C190.437 8.83503 189.519 8.37627 188.537 8.12058H188.403H188.255C186.922 7.86896 185.57 7.73825 184.214 7.73004H183.676L183.137 7.83777C182.445 7.97817 181.771 8.19966 181.131 8.49765C179.772 8.02402 178.34 7.79602 176.902 7.8243H175.73C173.52 7.8099 171.375 8.57256 169.67 9.97902C169.57 9.8516 169.462 9.73018 169.347 9.61541L168.943 9.23833L168.472 8.95553C166.906 7.9149 165.095 7.30206 163.219 7.17789C162.816 7.15715 162.411 7.15715 162.007 7.17789C160.588 7.19102 159.174 7.36267 157.792 7.68963H157.725C155.07 8.32533 152.624 9.63841 150.628 11.5008L150.547 11.5816C149.455 12.6996 148.627 14.0478 148.123 15.5274C147.65 16.9595 147.294 18.4277 147.059 19.9176C146.83 19.9176 146.628 19.8099 146.386 19.783C146.386 19.2847 146.386 18.7595 146.386 18.2343C146.414 16.679 146.355 15.1234 146.211 13.5747C146.141 11.7255 145.348 9.97752 144.004 8.70601C142.659 7.43451 140.87 6.74083 139.019 6.77388H138.912C136.69 6.70115 134.481 7.12919 132.448 8.02631C131.655 8.40517 130.939 8.92544 130.333 9.56154C130.225 9.42687 130.145 9.26527 130.023 9.1306L129.821 8.87473L129.593 8.64579C127.955 6.97736 125.844 5.85356 123.546 5.42719H123.29H123.034C122.536 5.42719 122.038 5.42719 121.566 5.42719C119.661 5.39648 117.77 5.76819 116.018 6.51801L115.816 6.50454L115.6 6.62574C113.418 7.81424 111.459 9.37261 109.81 11.2314C109.5 11.5951 109.23 11.9048 109.002 12.2145C108.528 11.2128 107.835 10.3299 106.975 9.63077C106.115 8.93165 105.11 8.43402 104.032 8.17445H103.898L103.696 8.12058C102.363 7.86896 101.011 7.73825 99.6555 7.73004H99.1168L98.5781 7.83777C97.8856 7.97817 97.2122 8.19966 96.5715 8.49765C95.2131 8.02402 93.7812 7.79602 92.3429 7.8243H91.1713C87.2389 7.98591 85.1381 9.62888 84.0338 11.191C82.9725 10.5782 81.7713 10.2489 80.5458 10.2349H80.29H80.0341C77.2782 10.3487 74.6329 11.3502 72.4926 13.0899C72.1123 12.5138 71.6597 11.9888 71.1459 11.5277L70.7688 11.218L70.3379 10.9621C68.5251 10.0003 66.4899 9.53567 64.4394 9.61541C63.2469 9.63419 62.0597 9.77864 60.8975 10.0464H60.7359L60.6013 10.1406C59.0391 10.5281 57.5666 11.2141 56.2649 12.1607C55.7265 12.5189 55.2176 12.9197 54.7431 13.3592C54.1325 11.9857 53.2639 10.7422 52.1844 9.69621L51.7939 9.31914L51.3225 9.03633C49.7553 7.99908 47.9455 7.38654 46.0704 7.25869C45.6664 7.25869 45.2624 7.25869 44.8584 7.25869C43.4386 7.27103 42.0247 7.44269 40.6432 7.77044H40.5624H40.4951C37.845 8.40945 35.405 9.72225 33.4115 11.5816C33.2794 10.8326 33.1086 10.0909 32.8997 9.35954L32.8189 9.0902L32.7112 8.82086C31.879 6.76639 30.429 5.02132 28.5616 3.82706C26.6942 2.63281 24.5018 2.04841 22.2878 2.15471H21.776C17.2691 2.3977 13.0023 4.26324 9.7635 7.40683C6.63338 10.6324 4.86376 14.9383 4.82113 19.4328V20.7795C4.71084 23.5411 5.02884 26.3031 5.76382 28.9674C6.38449 31.4465 7.64798 33.718 9.42683 35.5528C12.5512 39.135 16.9953 40.9396 22.6244 40.9396H22.7187C24.7194 40.8688 26.6906 40.4353 28.5364 39.6602L29.129 39.4313L29.6273 39.0946C30.6552 38.3961 31.6115 37.5976 32.4823 36.7109V36.7783C34.576 38.5984 37.2631 39.5899 40.0372 39.5659C40.6765 39.5695 41.3139 39.4971 41.9361 39.3505C42.958 39.9895 44.0837 40.4452 45.2624 40.6972C45.829 40.819 46.4066 40.8822 46.9862 40.8857C48.0584 40.8906 49.1192 40.6656 50.097 40.2258L50.73 39.943L51.2687 39.5121C51.6018 39.2462 51.9167 38.9582 52.2114 38.6502C52.5657 38.9276 52.9392 39.1796 53.3291 39.4043H53.4368H53.5446C55.2842 40.2124 57.1894 40.5999 59.1064 40.5355C60.1696 40.5124 61.2287 40.3952 62.2712 40.1854H62.5001L62.7156 40.1181C65.8051 39.4194 68.7402 38.1596 71.3748 36.4012C72.1423 37.4291 73.1319 38.2705 74.2697 38.8628C75.4076 39.455 76.6645 39.7829 77.9467 39.8218C78.2565 39.8218 78.5527 39.8218 78.8625 39.8218C80.1407 39.8152 81.4126 39.6432 82.6467 39.3101C83.9417 39.0346 85.1269 38.3835 86.0538 37.4381C88.0569 38.7311 90.4041 39.3883 92.7873 39.3235H93.0297C93.8713 39.3673 94.7148 39.2902 95.5346 39.0946C96.5552 39.6913 97.7191 39.9986 98.9013 39.9834C100.688 39.9345 102.439 39.4736 104.019 38.6367C105.065 38.1742 106.05 37.5864 106.955 36.886C107.817 37.987 108.893 38.9036 110.116 39.5814C111.34 40.2592 112.687 40.6844 114.079 40.8318H114.59H115.102C117.029 40.7407 118.921 40.2837 120.677 39.4851C122.717 38.5536 124.62 37.3484 126.333 35.9029C126.94 35.3777 127.505 34.8525 128.017 34.3407C128.207 34.965 128.437 35.5768 128.704 36.1723L129.229 37.29L130.185 38.0711C132.605 39.9869 135.625 40.984 138.71 40.8857C139.275 40.8857 139.841 40.8857 140.406 40.8857C142.276 40.8811 144.141 40.7144 145.982 40.3874C147.971 40.1076 149.804 39.1574 151.18 37.694C153.029 38.8752 155.181 39.4971 157.375 39.4851C158.014 39.4887 158.651 39.4163 159.274 39.2696C160.294 39.9109 161.421 40.3669 162.6 40.6163C163.166 40.7396 163.744 40.8028 164.324 40.8049C165.392 40.8095 166.448 40.5845 167.421 40.145L168.068 39.8622L168.606 39.4313C169.355 38.825 170.017 38.118 170.572 37.3304C170.624 37.3786 170.677 37.4235 170.734 37.4651C172.737 38.758 175.084 39.4152 177.468 39.3505H177.764C178.573 39.3302 179.375 39.1988 180.147 38.9599C181.168 39.5566 182.332 39.8639 183.514 39.8487C185.301 39.7998 187.052 39.3389 188.632 38.502C189.498 38.1403 190.324 37.6889 191.096 37.1553C191.09 37.1774 191.09 37.2006 191.096 37.2227L191.689 37.8422L192.456 38.2462C194.935 39.6037 197.71 40.3298 200.536 40.3605H200.86H201.169C204.691 40.1325 208.07 38.883 210.893 36.7648L211.243 36.482L211.539 36.1588C211.822 35.8356 212.064 35.5124 212.32 35.1892C213.089 36.1738 214.066 36.9765 215.181 37.5399C216.296 38.1032 217.522 38.4134 218.771 38.4482C219.08 38.4482 219.377 38.4482 219.686 38.4482C220.965 38.4416 222.237 38.2696 223.471 37.9364C224.446 37.726 225.365 37.3081 226.164 36.7109C228.252 38.511 230.922 39.492 233.679 39.4717C234.318 39.4762 234.955 39.4039 235.577 39.2562C236.603 39.8977 237.734 40.3535 238.917 40.6029C239.479 40.7254 240.052 40.7886 240.628 40.7914C241.7 40.7963 242.761 40.5713 243.738 40.1315L244.371 39.8487L244.924 39.4178C247.237 37.3951 248.783 34.6365 249.3 31.607V31.4319V31.2568C249.722 28.6061 249.947 25.9278 249.974 23.244V23.042C249.967 22.9478 249.967 22.8533 249.974 22.7592C250.014 22.5437 250.028 22.2609 250.028 21.9915Z" fill="#B55BEF"/>
<path d="M77.8444 1.74422C78.2827 1.46945 78.7896 1.32373 79.307 1.32373C79.8243 1.32373 80.3312 1.46945 80.7696 1.74422C81.2065 2.01804 81.5576 2.40897 81.7832 2.8725L82.6502 4.6453L84.6421 4.93414L84.6689 4.93873C85.0596 5.00583 85.4312 5.15648 85.7583 5.38038C86.0854 5.6043 86.3603 5.89619 86.5642 6.23606C86.7682 6.57594 86.8963 6.95586 86.94 7.34988C86.9524 7.46174 86.9578 7.57397 86.9565 7.68597C87.0393 8.05606 87.0688 8.43714 87.0432 8.81759C87.004 9.40035 86.8366 9.96726 86.5529 10.4778L86.3905 10.7702L84.887 12.1565L85.0313 13.0043C85.0992 13.3724 85.0886 13.7506 85.0003 14.1141L85.0341 14.3134L85.0345 14.3161C85.1204 14.8189 85.0649 15.3357 84.8742 15.8089C84.6831 16.2829 84.364 16.6944 83.9524 16.9973C83.5409 17.3003 83.0531 17.4828 82.5438 17.5243C82.0344 17.5659 81.5236 17.4649 81.0683 17.2327L81.0555 17.2261L79.28 16.2891L77.5046 17.2261L77.4917 17.2327C77.0365 17.4649 76.5256 17.5659 76.0163 17.5243C75.507 17.4828 75.0192 17.3003 74.6077 16.9973C74.1961 16.6944 73.8769 16.2829 73.6859 15.8089C73.4953 15.3359 73.4397 14.8192 73.5255 14.3164L73.526 14.3134L73.5598 14.1141C73.4715 13.7506 73.4609 13.3725 73.5287 13.0044L73.6789 12.122L72.2922 10.7732L72.1543 10.5456C71.8494 10.0426 71.6571 9.47945 71.5906 8.89501C71.5421 8.46926 71.5613 8.03953 71.6463 7.62156C71.6482 7.46866 71.6628 7.3158 71.6901 7.16458C71.7578 6.79036 71.9023 6.43419 72.1145 6.11852C72.3266 5.80285 72.6019 5.53458 72.9228 5.33057C73.2438 5.12657 73.6035 4.99124 73.9794 4.93313L73.989 4.93164L75.9533 4.64683L76.8334 2.86699C77.0591 2.40587 77.4092 2.01695 77.8444 1.74422Z" fill="#B55BEF"/>
<path d="M79.9396 4.82117L81.1381 7.27216C81.1893 7.36965 81.262 7.45425 81.3506 7.51957C81.4393 7.58489 81.5416 7.62923 81.6499 7.64923L84.5049 7.15096C85.0435 7.23176 85.1243 8.79393 84.7338 9.18447L82.7676 11.0968C82.6889 11.1717 82.6304 11.2653 82.5974 11.3689C82.5645 11.4725 82.5582 11.5827 82.5791 11.6893L83.037 14.3827C83.0581 14.5059 83.0446 14.6325 82.9979 14.7484C82.9512 14.8642 82.8731 14.9649 82.7725 15.0389C82.6719 15.113 82.5526 15.1576 82.4281 15.1678C82.3036 15.1779 82.1787 15.1532 82.0673 15.0965L79.6433 13.8171C79.5487 13.764 79.442 13.7361 79.3336 13.7361C79.2251 13.7361 79.1184 13.764 79.0238 13.8171L76.5998 15.0965C76.4885 15.1532 76.3636 15.1779 76.239 15.1678C76.1145 15.1576 75.9952 15.113 75.8946 15.0389C75.794 14.9649 75.716 14.8642 75.6692 14.7484C75.6225 14.6325 75.609 14.5059 75.6301 14.3827L76.088 11.6893C76.1054 11.5827 76.0974 11.4734 76.0647 11.3705C76.0319 11.2675 75.9753 11.1738 75.8995 11.0968L73.9333 9.18447C73.5428 8.79393 73.5697 7.19136 74.1218 7.11056L77.0172 7.64923C77.1242 7.63026 77.2251 7.58619 77.3117 7.52064C77.3984 7.4551 77.4682 7.36994 77.5155 7.27216L78.7275 4.82117C78.7827 4.70733 78.8688 4.61132 78.9759 4.54414C79.0831 4.47696 79.2071 4.44133 79.3336 4.44133C79.4601 4.44133 79.584 4.47696 79.6912 4.54414C79.7983 4.61132 79.8844 4.70733 79.9396 4.82117Z" fill="#400645"/>
<path d="M79.9396 3.78422L81.1382 6.2352C81.1875 6.33282 81.2599 6.41694 81.3491 6.48029C81.4382 6.54365 81.5415 6.58433 81.6499 6.59881L84.3433 6.98935C84.4672 7.00735 84.5836 7.05953 84.6794 7.14002C84.7753 7.22052 84.8468 7.32614 84.886 7.44503C84.9252 7.56392 84.9304 7.69138 84.9012 7.81309C84.8719 7.9348 84.8093 8.04594 84.7204 8.13405L82.7677 10.0464C82.69 10.122 82.6321 10.2157 82.5992 10.319C82.5663 10.4224 82.5594 10.5322 82.5791 10.6389L83.037 13.3323C83.0581 13.4554 83.0446 13.582 82.9979 13.6979C82.9512 13.8138 82.8732 13.9144 82.7725 13.9885C82.6719 14.0626 82.5527 14.1072 82.4281 14.1173C82.3036 14.1275 82.1787 14.1028 82.0674 14.046L79.6433 12.7801C79.5487 12.7271 79.4421 12.6992 79.3336 12.6992C79.2251 12.6992 79.1184 12.7271 79.0238 12.7801L76.5998 14.046C76.4885 14.1028 76.3636 14.1275 76.239 14.1173C76.1145 14.1072 75.9953 14.0626 75.8946 13.9885C75.794 13.9144 75.716 13.8138 75.6693 13.6979C75.6226 13.582 75.609 13.4554 75.6302 13.3323L76.088 10.6389C76.1044 10.5323 76.0959 10.4233 76.0631 10.3206C76.0304 10.2178 75.9744 10.1239 75.8995 10.0464L73.9333 8.12058C73.8444 8.03248 73.7818 7.92133 73.7525 7.79962C73.7233 7.67791 73.7285 7.55046 73.7677 7.43156C73.8069 7.31267 73.8784 7.20705 73.9743 7.12656C74.0701 7.04606 74.1865 6.99389 74.3104 6.97589L77.0038 6.58534C77.111 6.57227 77.213 6.53199 77.3002 6.46835C77.3874 6.4047 77.4569 6.31981 77.5021 6.22174L78.7141 3.77075C78.7689 3.65377 78.8563 3.55503 78.9657 3.48632C79.0751 3.41761 79.202 3.38183 79.3312 3.38325C79.4604 3.38467 79.5864 3.42323 79.6943 3.49433C79.8022 3.56542 79.8873 3.66606 79.9396 3.78422Z" fill="#FFE20D"/>
<path fill-rule="evenodd" clip-rule="evenodd" d="M1.74049 13.6495C2.57614 12.8738 3.67418 12.4427 4.81437 12.4427C5.95457 12.4427 7.05261 12.8738 7.88826 13.6495C8.71747 14.4193 9.22747 15.4719 9.31803 16.599C9.33677 16.7988 9.34107 16.9995 9.33092 17.1997C9.33772 17.3406 9.33731 17.4817 9.32971 17.6225C9.34959 18.184 9.26457 18.7448 9.07849 19.2761C8.87298 19.8627 8.54864 20.4007 8.12573 20.8563C7.70282 21.3118 7.19046 21.6752 6.62068 21.9238C6.05091 22.1723 5.43598 22.3005 4.81437 22.3005C4.19277 22.3005 3.57784 22.1723 3.00807 21.9238C2.43829 21.6752 1.92593 21.3118 1.50302 20.8563C1.08012 20.4007 0.755766 19.8627 0.550262 19.2761C0.364175 18.7448 0.279161 18.184 0.299038 17.6225C0.291435 17.4817 0.291033 17.3406 0.297831 17.1997C0.287677 16.9995 0.291975 16.7987 0.310726 16.599C0.401287 15.4719 0.911285 14.4193 1.74049 13.6495ZM7.24516 16.7798L5.17026 16.9344C5.16357 16.8446 5.12318 16.7606 5.05717 16.6993C4.99116 16.6381 4.90443 16.604 4.81437 16.604C4.72432 16.604 4.63759 16.6381 4.57158 16.6993C4.50557 16.7606 4.46518 16.8446 4.45849 16.9344L4.45649 16.9612L4.4538 16.9879V16.9892L4.47451 17.1952L4.4544 17.3993L4.47185 17.5764L4.45849 17.7559C4.45484 17.8048 4.46133 17.854 4.47757 17.9004C4.4938 17.9467 4.51942 17.9892 4.55282 18.0252C4.58623 18.0612 4.6267 18.0899 4.6717 18.1095C4.7167 18.1291 4.76527 18.1392 4.81437 18.1392C4.86348 18.1392 4.91205 18.1291 4.95705 18.1095C5.00205 18.0899 5.04252 18.0611 5.07593 18.0252C5.10933 17.9892 5.13495 17.9467 5.15118 17.9004C5.16742 17.854 5.17391 17.8048 5.17026 17.7559L5.1569 17.5764L5.17434 17.3993L5.15424 17.1952L5.17495 16.9892V16.9879L7.24516 16.7798Z" fill="white"/>
<path fill-rule="evenodd" clip-rule="evenodd" d="M1.74049 15.0366C2.57614 14.2609 3.67418 13.8298 4.81437 13.8298C5.95457 13.8298 7.05261 14.2609 7.88826 15.0366C8.71747 15.8064 9.22747 16.859 9.31803 17.9861C9.33677 18.1859 9.34107 18.3866 9.33092 18.5868C9.33772 18.7277 9.33731 18.8688 9.32971 19.0096C9.34959 19.5711 9.26457 20.1319 9.07849 20.6632C8.87298 21.2498 8.54864 21.7878 8.12573 22.2434C7.70282 22.6989 7.19046 23.0623 6.62068 23.3109C6.05091 23.5594 5.43598 23.6876 4.81437 23.6876C4.19277 23.6876 3.57784 23.5594 3.00807 23.3109C2.43829 23.0623 1.92593 22.6989 1.50302 22.2434C1.08012 21.7878 0.755766 21.2498 0.550262 20.6632C0.364175 20.1319 0.279161 19.5711 0.299038 19.0096C0.291435 18.8688 0.291033 18.7277 0.297831 18.5868C0.287677 18.3866 0.291975 18.1858 0.310726 17.9861C0.401287 16.859 0.911285 15.8064 1.74049 15.0366ZM7.24516 18.1669L5.17026 18.3215C5.16357 18.2317 5.12318 18.1477 5.05717 18.0864C4.99116 18.0252 4.90443 17.9911 4.81437 17.9911C4.72432 17.9911 4.63759 18.0252 4.57158 18.0864C4.50557 18.1477 4.46518 18.2317 4.45849 18.3215L4.45649 18.3483L4.4538 18.375V18.3763L4.47451 18.5823L4.4544 18.7864L4.47185 18.9635L4.45849 19.143C4.45484 19.1919 4.46133 19.2411 4.47757 19.2875C4.4938 19.3338 4.51942 19.3763 4.55282 19.4123C4.58623 19.4483 4.6267 19.477 4.6717 19.4966C4.7167 19.5162 4.76527 19.5263 4.81437 19.5263C4.86348 19.5263 4.91205 19.5162 4.95705 19.4966C5.00205 19.477 5.04252 19.4482 5.07593 19.4123C5.10933 19.3763 5.13495 19.3338 5.15118 19.2875C5.16742 19.2411 5.17391 19.1919 5.17026 19.143L5.1569 18.9635L5.17434 18.7864L5.15424 18.5823L5.17495 18.3763V18.375L7.24516 18.1669Z" fill="#B55BEF"/>
<path fill-rule="evenodd" clip-rule="evenodd" d="M247.082 13.6495C247.917 12.8738 249.015 12.4427 250.156 12.4427C251.296 12.4427 252.394 12.8738 253.23 13.6495C254.059 14.4193 254.569 15.4719 254.659 16.599C254.678 16.7988 254.682 16.9995 254.672 17.1997C254.679 17.3406 254.679 17.4817 254.671 17.6225C254.691 18.184 254.606 18.7448 254.42 19.2761C254.214 19.8627 253.89 20.4007 253.467 20.8563C253.044 21.3118 252.532 21.6752 251.962 21.9238C251.392 22.1723 250.777 22.3005 250.156 22.3005C249.534 22.3005 248.919 22.1723 248.349 21.9238C247.78 21.6753 247.267 21.3118 246.844 20.8563C246.421 20.4007 246.097 19.8627 245.892 19.2761C245.705 18.7448 245.62 18.184 245.64 17.6225C245.633 17.4817 245.632 17.3406 245.639 17.1997C245.629 16.9995 245.633 16.7987 245.652 16.599C245.743 15.4718 246.253 14.4193 247.082 13.6495ZM252.586 16.7798L250.512 16.9344C250.505 16.8445 250.464 16.7606 250.398 16.6993C250.332 16.6381 250.246 16.604 250.156 16.604C250.066 16.604 249.979 16.6381 249.913 16.6993C249.847 16.7606 249.806 16.8446 249.8 16.9344L249.798 16.9612L249.795 16.9879V16.9892L249.816 17.1952L249.796 17.3993L249.813 17.5764L249.8 17.7559C249.796 17.8048 249.803 17.854 249.819 17.9004C249.835 17.9467 249.861 17.9892 249.894 18.0252C249.928 18.0611 249.968 18.0898 250.013 18.1095C250.058 18.1291 250.107 18.1392 250.156 18.1392C250.205 18.1392 250.253 18.1291 250.298 18.1095C250.343 18.0899 250.384 18.0612 250.417 18.0252C250.451 17.9892 250.476 17.9467 250.492 17.9004C250.509 17.854 250.515 17.8048 250.512 17.7559L250.498 17.5764L250.516 17.3993L250.496 17.1952L250.516 16.9892V16.9879L252.586 16.7798Z" fill="white"/>
<path d="M4.80764 21.4259C6.15384 21.4259 7.24516 20.3346 7.24516 18.9884C7.24516 17.6422 6.15384 16.5509 4.80764 16.5509C3.46143 16.5509 2.37012 17.6422 2.37012 18.9884C2.37012 20.3346 3.46143 21.4259 4.80764 21.4259Z" fill="#400645"/>
<path d="M4.80764 20.6044C6.15384 20.6044 7.24516 19.5131 7.24516 18.1669C7.24516 16.8207 6.15384 15.7294 4.80764 15.7294C3.46143 15.7294 2.37012 16.8207 2.37012 18.1669C2.37012 19.5131 3.46143 20.6044 4.80764 20.6044Z" fill="#FFE20D"/>
<path fill-rule="evenodd" clip-rule="evenodd" d="M247.082 15.0366C247.917 14.2609 249.015 13.8298 250.156 13.8298C251.296 13.8298 252.394 14.2609 253.23 15.0366C254.059 15.8064 254.569 16.859 254.659 17.9861C254.678 18.1859 254.682 18.3866 254.672 18.5868C254.679 18.7277 254.679 18.8688 254.671 19.0096C254.691 19.5711 254.606 20.1319 254.42 20.6632C254.214 21.2498 253.89 21.7878 253.467 22.2434C253.044 22.6989 252.532 23.0623 251.962 23.3109C251.392 23.5594 250.777 23.6876 250.156 23.6876C249.534 23.6876 248.919 23.5594 248.349 23.3109C247.78 23.0624 247.267 22.6989 246.844 22.2434C246.421 21.7878 246.097 21.2498 245.892 20.6632C245.705 20.1319 245.62 19.5711 245.64 19.0096C245.633 18.8688 245.632 18.7277 245.639 18.5868C245.629 18.3866 245.633 18.1858 245.652 17.9861C245.743 16.8589 246.253 15.8064 247.082 15.0366ZM252.586 18.1669L250.512 18.3215C250.505 18.2316 250.464 18.1477 250.398 18.0864C250.332 18.0252 250.246 17.9911 250.156 17.9911C250.066 17.9911 249.979 18.0252 249.913 18.0864C249.847 18.1477 249.806 18.2317 249.8 18.3215L249.798 18.3483L249.795 18.375V18.3763L249.816 18.5823L249.796 18.7864L249.813 18.9635L249.8 19.143C249.796 19.1919 249.803 19.2411 249.819 19.2875C249.835 19.3338 249.861 19.3763 249.894 19.4123C249.928 19.4482 249.968 19.4769 250.013 19.4966C250.058 19.5162 250.107 19.5263 250.156 19.5263C250.205 19.5263 250.253 19.5162 250.298 19.4966C250.343 19.477 250.384 19.4483 250.417 19.4123C250.451 19.3763 250.476 19.3338 250.492 19.2875C250.509 19.2411 250.515 19.1919 250.512 19.143L250.498 18.9635L250.516 18.7864L250.496 18.5823L250.516 18.3763V18.375L252.586 18.1669Z" fill="#B55BEF"/>
<path d="M250.148 21.4259C251.495 21.4259 252.586 20.3346 252.586 18.9884C252.586 17.6422 251.495 16.5509 250.148 16.5509C248.802 16.5509 247.711 17.6422 247.711 18.9884C247.711 20.3346 248.802 21.4259 250.148 21.4259Z" fill="#400645"/>
<path d="M250.148 20.6044C251.495 20.6044 252.586 19.5131 252.586 18.1669C252.586 16.8207 251.495 15.7294 250.148 15.7294C248.802 15.7294 247.711 16.8207 247.711 18.1669C247.711 19.5131 248.802 20.6044 250.148 20.6044Z" fill="#FFE20D"/>
<path d="M22.2877 8.8882C23.4239 8.79018 24.5613 9.06079 25.5316 9.65992C26.5019 10.2591 27.2533 11.1548 27.6745 12.2145C28.1522 13.7835 28.3394 15.4265 28.2267 17.0626C28.2104 17.7578 28.0444 18.4413 27.74 19.0665C27.4355 19.6917 26.9998 20.2438 26.4625 20.6853C26.1528 20.7526 26.0046 20.8065 26.0046 20.8738C25.2495 20.7748 24.5024 20.6218 23.7691 20.4159H23.2978C20.3216 20.793 18.8402 21.7626 18.8402 23.2844V24.0385C18.984 24.6202 19.3177 25.1374 19.7884 25.5081C20.2592 25.8789 20.8401 26.082 21.4393 26.0855C21.4393 26.0855 21.6952 26.1798 22.1935 26.1798C23.4889 25.407 24.6754 24.465 25.7218 23.3786C26.1792 23.1265 26.6833 22.9706 27.2032 22.9208C27.9843 22.9208 28.8461 23.8769 29.8158 25.8027C30.2482 26.6388 30.5005 27.5564 30.5565 28.4961C30.5565 30.7765 29.2098 32.8235 26.5164 34.637C25.2782 35.1707 23.9568 35.4851 22.611 35.5662H22.5167C18.4497 35.5662 15.3792 34.3587 13.3053 31.9436C12.0974 30.7095 11.2619 29.1599 10.8947 27.4726C10.287 25.2826 10.0369 23.0088 10.154 20.7391C10.2014 17.6456 11.43 14.6873 13.5881 12.4704C15.9543 10.2556 19.0481 8.98171 22.2877 8.8882Z" fill="#400645"/>
<path d="M45.7874 13.9114C46.7514 13.9884 47.6792 14.3132 48.4808 14.8541C49.494 15.8985 50.1858 17.212 50.4739 18.6383C50.8248 20.1626 51.0099 21.7203 51.0261 23.2844C51.0037 25.6938 50.7966 28.098 50.4066 30.4757C50.1392 32.3018 49.2666 33.9853 47.9287 35.2565C47.4522 35.4587 46.923 35.5012 46.4204 35.3777C45.3284 35.1442 44.3439 34.5573 43.6193 33.7078C43.0128 32.5013 42.774 31.1434 42.9324 29.8024C42.9324 29.7081 42.9324 29.3984 42.9998 28.8732H42.8651H41.7473C41.6665 28.8732 41.6261 28.9136 41.6261 28.9944L41.9359 31.5261C41.9359 32.8728 41.6665 33.6539 41.1279 34.0175C40.8097 34.1383 40.4716 34.1977 40.1313 34.1926C38.6468 34.2212 37.2054 33.6927 36.0912 32.7112C35.6737 32.3072 35.3101 30.6508 34.9735 27.7554C34.8987 27.3103 34.8582 26.86 34.8523 26.4087C34.7322 23.7801 35.1114 21.1525 35.97 18.6652C36.2074 17.9418 36.6084 17.2828 37.1416 16.7394C38.4729 15.5126 40.0953 14.6458 41.8551 14.2211C43.1408 13.9076 44.4685 13.803 45.7874 13.9114ZM41.3837 24.2809L41.5723 24.4021C43.0132 24.2271 43.7405 23.9173 43.7405 23.4729C43.927 22.7622 43.927 22.0154 43.7405 21.3047C43.6597 20.8738 43.3768 20.6852 42.8651 20.7391C42.397 21.0788 42.0369 21.5464 41.8281 22.0858C41.4945 22.7674 41.3414 23.5232 41.3837 24.2809Z" fill="#400645"/>
<path d="M64.4663 16.3624C65.5835 16.3075 66.6961 16.5393 67.6984 17.0357C67.971 17.2406 68.1938 17.5046 68.3501 17.8077C68.5063 18.1109 68.592 18.4455 68.6007 18.7864C68.5068 19.88 68.0299 20.9054 67.254 21.6818C66.8769 21.9511 66.217 21.8569 65.2878 21.4125C64.5742 21.2147 63.8199 21.2168 63.1074 21.4187C62.3949 21.6206 61.7516 22.0144 61.2477 22.5572C61.0188 23.1901 61.2477 23.4594 61.975 23.3248C62.9562 23.3041 63.9319 23.173 64.8838 22.9342C66.3986 22.5937 67.981 22.7205 69.4222 23.2978C69.9809 23.6816 70.4341 24.1997 70.74 24.8045C71.046 25.4093 71.1948 26.0814 71.1729 26.7588C71.1136 27.8511 70.8049 28.9152 70.2706 29.8697C69.7358 30.6648 69.1023 31.3888 68.3852 32.0244C66.2387 33.4676 63.8405 34.4954 61.3151 35.0545C60.6005 35.1983 59.8754 35.2839 59.1469 35.3104C58.0629 35.3617 56.9813 35.1684 55.9822 34.7448C55.5912 34.5829 55.2557 34.3109 55.0166 33.9618C54.7775 33.6127 54.6451 33.2016 54.6355 32.7786C54.6233 32.0307 54.7047 31.2842 54.8779 30.5565C55.0213 29.8288 55.2901 29.1316 55.6724 28.4961C56.0764 27.9843 56.4266 27.715 56.7094 27.715C57.8897 27.7781 59.0618 27.9494 60.2108 28.2267C61.6454 28.392 63.0987 28.2167 64.4529 27.715C66.0689 26.9609 66.8635 26.3683 66.8231 25.9643C66.7827 25.5603 66.4595 25.4795 65.7457 25.6007C64.3271 25.848 62.9276 26.1946 61.5575 26.6376C60.8826 26.8007 60.1913 26.8865 59.497 26.8935C59.0549 26.9534 58.6049 26.8967 58.1915 26.729C57.7781 26.5613 57.4157 26.2884 57.1403 25.9374C56.6769 25.0053 56.4458 23.9749 56.467 22.9342C56.4346 21.8794 56.6974 20.8365 57.2255 19.9229C57.7537 19.0093 58.5264 18.2612 59.4566 17.7629C60.2608 17.1933 61.1803 16.8071 62.15 16.6317C62.9108 16.4625 63.687 16.3723 64.4663 16.3624Z" fill="#400645"/>
<path d="M80.64 16.9818C81.0512 17.0224 81.4452 17.1674 81.7847 17.4031C82.1241 17.6388 82.3976 17.9574 82.5792 18.3285C83.363 20.424 83.7379 22.6503 83.6835 24.8869C83.7397 25.7839 83.7397 26.6834 83.6835 27.5803C83.5726 29.3359 83.293 31.0766 82.8486 32.7786C82.761 33.1121 82.5824 33.4148 82.3327 33.6526C82.083 33.8904 81.772 34.0541 81.4345 34.1253C80.3899 34.4263 79.3003 34.5403 78.2159 34.4619C77.6397 34.442 77.0785 34.2727 76.5874 33.9705C76.0963 33.6683 75.6923 33.2436 75.4148 32.7382C75.1104 30.8957 74.9662 29.0303 74.9839 27.1629V25.8162C74.9763 24.3654 75.0754 22.916 75.2801 21.4798C75.4055 20.4931 75.6779 19.5308 76.0882 18.6248C77.3857 17.5955 78.9842 17.0186 80.64 16.9818Z" fill="#400645"/>
<path d="M99.7498 14.4366C100.763 14.4497 101.772 14.5533 102.766 14.7463C103.142 14.8479 103.483 15.0493 103.753 15.3291C104.024 15.6089 104.213 15.9566 104.302 16.3354C104.994 18.7094 105.316 21.1758 105.258 23.648C105.373 26.4605 105.069 29.2745 104.356 31.9975C103.623 32.7548 102.73 33.3391 101.743 33.7078C100.872 34.1942 99.8982 34.4666 98.9014 34.5023C97.9722 34.5023 97.1642 33.5058 96.4639 31.4992C95.8397 30.2025 95.3392 28.8498 94.9691 27.4591C94.4292 25.815 93.9796 24.1426 93.6224 22.4494C93.7444 25.7748 94.1045 29.0872 94.6997 32.3611C94.9556 33.425 94.39 33.9771 92.9894 34.0175C91.632 34.0995 90.2824 33.7609 89.1244 33.0479C88.8775 32.8755 88.6762 32.6457 88.5378 32.3783C88.3994 32.1109 88.328 31.8138 88.3298 31.5127C87.7983 28.8532 87.5545 26.1442 87.6026 23.4325C87.6026 19.0692 87.8181 16.6182 88.276 16.1065C88.6531 15.1638 89.7304 14.652 91.5215 14.5712C93.8378 14.4635 95.1576 14.7463 95.5616 15.4197C96.437 16.3489 97.7298 19.6752 99.4132 25.4122C99.3043 22.923 99.0616 20.4415 98.6859 17.9784C98.4564 17.2373 98.303 16.4747 98.2281 15.7025C98.1607 15.0695 98.6859 14.652 99.7498 14.4366Z" fill="#400645"/>
<path d="M122.617 12.0799C123.841 12.3166 124.961 12.9285 125.822 13.8306C127.024 15.3783 127.832 17.1943 128.179 19.1231C128.369 20.3845 128.401 21.6649 128.273 22.9342C128.155 24.1477 127.817 25.3296 127.276 26.4222C126.226 28.48 124.736 30.2821 122.913 31.7012C121.539 32.872 120.007 33.8423 118.361 34.5832C117.184 35.1041 115.918 35.3966 114.631 35.445C113.734 35.3351 112.879 35.0012 112.144 34.474C111.41 33.9469 110.82 33.2434 110.429 32.4284C109.719 30.9746 109.364 29.3731 109.392 27.7554C109.41 25.7674 109.76 23.7963 110.429 21.9242C110.939 20.6008 111.565 19.3254 112.301 18.1131C112.74 17.3909 113.25 16.7142 113.823 16.093C115.063 14.7082 116.535 13.5506 118.173 12.6724C119.581 12.1075 121.109 11.9038 122.617 12.0799ZM115.547 28.1055C115.452 29.2502 116.112 29.8158 117.54 29.8158C118.773 29.6091 119.92 29.0476 120.839 28.1998C121.867 27.2957 122.512 26.0342 122.644 24.6715C122.442 23.7153 121.984 23.1766 121.297 23.0689C120.379 23.1825 119.494 23.4795 118.694 23.9422C117.893 24.4049 117.194 25.0239 116.637 25.7623C116.093 26.4455 115.719 27.2488 115.547 28.1055Z" fill="#400645"/>
<path d="M138.952 13.5074C140.083 13.5074 140.689 14.1672 140.77 15.487C141.255 20.6852 140.725 24.8151 139.181 27.8766C139.809 27.6054 140.457 27.3847 141.12 27.2167C142.477 26.8669 143.868 26.6593 145.268 26.5972C145.732 26.5768 146.196 26.6483 146.633 26.8078C147.07 26.9673 147.471 27.2115 147.813 27.5265C148.053 27.9621 148.161 28.4581 148.123 28.954C148.261 30.6833 147.979 32.4204 147.301 34.0175C146.728 34.6568 145.934 35.056 145.079 35.1353C143.014 35.5104 140.912 35.637 138.817 35.5124C136.962 35.5698 135.147 34.974 133.686 33.829C132.961 32.0226 132.661 30.0733 132.811 28.1325C132.811 20.9501 133.058 16.8427 133.552 15.8102C133.624 15.4793 133.767 15.1682 133.972 14.8984C134.176 14.6286 134.438 14.4067 134.737 14.248C136.069 13.6916 137.509 13.4386 138.952 13.5074Z" fill="#400645"/>
<path d="M162.95 13.9114C163.951 13.9921 164.913 14.3359 165.738 14.9079C166.747 15.9536 167.434 17.2671 167.717 18.6921C168.105 20.2113 168.312 21.7707 168.337 23.3382C168.313 25.747 168.11 28.1507 167.731 30.5296C167.465 32.3591 166.587 34.0443 165.239 35.3104C164.763 35.5135 164.234 35.5561 163.731 35.4316C162.63 35.1934 161.637 34.6023 160.903 33.7482C160.297 32.5417 160.058 31.1838 160.216 29.8428C160.216 29.7485 160.216 29.4388 160.216 28.9136H160.095H158.91C158.829 28.9136 158.789 28.954 158.789 29.0348L159.112 31.5666C159.112 32.9132 158.829 33.6943 158.291 34.0579C157.977 34.1793 157.643 34.2387 157.307 34.233C155.822 34.2669 154.379 33.7377 153.267 32.7516C152.85 32.3476 152.473 30.6912 152.15 27.7958C152.075 27.3507 152.034 26.9004 152.028 26.4491C151.903 23.8213 152.278 21.1937 153.133 18.7056C153.375 17.9813 153.78 17.3225 154.318 16.7798C155.647 15.5506 157.27 14.6834 159.031 14.2615C160.31 13.9354 161.633 13.8172 162.95 13.9114ZM158.627 24.2809L158.802 24.4021C160.243 24.2271 160.97 23.9173 160.97 23.4729C161.158 22.7623 161.158 22.0153 160.97 21.3047C160.89 20.8738 160.607 20.6852 160.095 20.7391C159.62 21.0746 159.254 21.5431 159.045 22.0858C158.719 22.7695 158.575 23.5255 158.627 24.2809Z" fill="#400645"/>
<path d="M184.295 14.4366C185.308 14.4497 186.318 14.5533 187.312 14.7463C187.687 14.8479 188.028 15.0493 188.299 15.3291C188.569 15.6089 188.758 15.9566 188.847 16.3354C189.533 18.7108 189.855 21.1762 189.803 23.648C189.922 26.4614 189.613 29.2766 188.887 31.9975C188.164 32.7696 187.276 33.368 186.288 33.7482C185.417 34.2332 184.443 34.5054 183.447 34.5427C182.518 34.5427 181.71 33.5462 181.009 31.5396C180.385 30.2429 179.885 28.8902 179.514 27.4995C178.975 25.8554 178.525 24.183 178.168 22.4898C178.292 25.8017 178.652 29.1005 179.245 32.3611C179.501 33.425 178.935 33.9771 177.535 34.0175C176.177 34.0995 174.828 33.7609 173.67 33.0479C173.423 32.8755 173.222 32.6457 173.083 32.3783C172.945 32.1109 172.873 31.8138 172.875 31.5127C172.344 28.8532 172.1 26.1442 172.148 23.4325C172.148 19.0692 172.364 16.6182 172.821 16.1065C173.198 15.1638 174.276 14.652 176.067 14.5712C178.383 14.4635 179.703 14.7463 180.026 15.4197C180.924 16.3175 182.212 19.6483 183.891 25.4121C183.785 22.9223 183.537 20.4404 183.151 17.9784C182.935 17.2339 182.781 16.4726 182.693 15.7025C182.693 15.0695 183.231 14.652 184.295 14.4366Z" fill="#400645"/>
<path d="M202.099 12.9956C203.116 12.9276 204.135 13.1021 205.071 13.5048C206.008 13.9075 206.835 14.5269 207.485 15.3119C211.876 21.9107 211.876 27.6926 207.485 32.6574C205.436 34.0854 203.03 34.9153 200.536 35.0545C198.585 35.0247 196.67 34.516 194.961 33.5731C194.18 32.7561 193.767 29.5869 193.722 24.0655C193.677 18.544 193.974 15.5139 194.611 14.9753C195.375 14.4525 196.229 14.0737 197.129 13.8575C198.725 13.2918 200.405 13.0004 202.099 12.9956ZM200.994 22.4225C200.708 24.3042 200.681 26.2164 200.914 28.1055C200.981 28.6173 201.452 28.8462 202.26 28.7924C202.984 28.763 203.686 28.5398 204.294 28.1459C204.747 27.73 205.084 27.2036 205.273 26.6182C205.462 26.0328 205.496 25.4085 205.371 24.8061C204.779 22.5437 203.513 21.4663 201.56 21.5606C201.304 21.5875 201.102 21.8569 200.994 22.3821V22.4225Z" fill="#400645"/>
<path d="M221.437 15.6351C221.848 15.6757 222.242 15.8207 222.582 16.0564C222.921 16.2921 223.195 16.6107 223.376 16.9818C224.16 19.0773 224.535 21.3036 224.481 23.5402C224.537 24.4372 224.537 25.3367 224.481 26.2336C224.37 27.9892 224.09 29.7299 223.646 31.4319C223.563 31.757 223.395 32.0538 223.158 32.2909C222.921 32.5279 222.624 32.6965 222.299 32.7786C221.254 33.0796 220.165 33.1936 219.08 33.1153C218.495 33.1023 217.924 32.9348 217.425 32.6297C216.926 32.3245 216.517 31.8927 216.239 31.378C215.934 29.5354 215.785 27.6703 215.794 25.8027V24.456C215.798 23.0051 215.901 21.5562 216.104 20.1196C216.229 19.133 216.502 18.1707 216.912 17.2646C218.204 16.2457 219.792 15.6738 221.437 15.6351Z" fill="#400645"/>
<path d="M239.308 13.9114C240.309 13.9882 241.272 14.3324 242.095 14.9079C243.108 15.9524 243.8 17.2659 244.088 18.6921C244.439 20.2164 244.624 21.7742 244.641 23.3382C244.618 25.7477 244.411 28.1518 244.021 30.5296C243.759 32.3573 242.885 34.0424 241.543 35.3104C241.067 35.5126 240.538 35.5551 240.035 35.4316C238.931 35.2 237.936 34.6078 237.207 33.7482C236.6 32.5417 236.362 31.1838 236.52 29.8428C236.52 29.7485 236.52 29.4388 236.587 28.9136H236.453H235.281C235.2 28.9136 235.16 28.954 235.16 29.0348L235.47 31.5666C235.47 32.9133 235.2 33.6943 234.662 34.0579C234.343 34.1787 234.005 34.2381 233.665 34.233C232.18 34.2616 230.739 33.7331 229.625 32.7516C229.207 32.3476 228.844 30.6912 228.507 27.7958C228.432 27.3507 228.392 26.9004 228.386 26.4491C228.266 23.8205 228.645 21.1929 229.504 18.7056C229.74 17.9788 230.147 17.3187 230.689 16.7798C232.013 15.5506 233.632 14.6833 235.389 14.2615C236.668 13.9359 237.991 13.8177 239.308 13.9114ZM234.971 24.2809L235.16 24.4021C236.601 24.2271 237.328 23.9173 237.328 23.4729C237.515 22.7622 237.515 22.0154 237.328 21.3047C237.261 20.8738 236.964 20.6853 236.466 20.7391C235.991 21.0746 235.625 21.5431 235.416 22.0858C235.082 22.7674 234.929 23.5232 234.971 24.2809Z" fill="#400645"/>
<path d="M22.2877 7.5415C23.4239 7.44348 24.5613 7.71409 25.5316 8.31323C26.5019 8.91237 27.2533 9.80815 27.6745 10.8678C28.1522 12.4368 28.3394 14.0798 28.2267 15.7159C28.2104 16.4111 28.0444 17.0946 27.74 17.7198C27.4355 18.345 26.9998 18.8971 26.4625 19.3386C26.1528 19.4059 26.0046 19.4598 26.0046 19.5271C25.2495 19.4281 24.5024 19.2751 23.7691 19.0692H23.2978C20.3216 19.4463 18.8402 20.4159 18.8402 21.9377V22.6918C18.984 23.2735 19.3177 23.7907 19.7884 24.1614C20.2592 24.5322 20.8401 24.7353 21.4393 24.7388C21.4393 24.7388 21.6952 24.8331 22.1935 24.8331C23.4889 24.0603 24.6754 23.1183 25.7218 22.0319C26.1792 21.7798 26.6833 21.624 27.2032 21.5741C27.9843 21.5741 28.8461 22.5302 29.8158 24.456C30.2482 25.2922 30.5005 26.2097 30.5565 27.1494C30.5565 29.4298 29.2098 31.4768 26.5164 33.2903C25.2782 33.824 23.9568 34.1384 22.611 34.2195H22.5167C18.4497 34.2195 15.3792 33.012 13.3053 30.5969C12.0974 29.3628 11.2619 27.8132 10.8947 26.1259C10.287 23.9359 10.0369 21.6622 10.154 19.3924C10.2014 16.2989 11.43 13.3406 13.5881 11.1237C15.9543 8.90895 19.0481 7.63501 22.2877 7.5415Z" fill="white"/>
<path d="M45.7874 12.5647C46.7514 12.6417 47.6792 12.9665 48.4808 13.5074C49.494 14.5518 50.1858 15.8653 50.4739 17.2916C50.8248 18.8159 51.0099 20.3736 51.0261 21.9377C51.0037 24.3471 50.7966 26.7513 50.4066 29.129C50.1392 30.9551 49.2666 32.6386 47.9287 33.9098C47.4522 34.112 46.923 34.1545 46.4204 34.031C45.3284 33.7975 44.3439 33.2106 43.6193 32.3611C43.0128 31.1546 42.774 29.7967 42.9324 28.4557C42.9324 28.3614 42.9324 28.0517 42.9998 27.5265H42.8651H41.7473C41.6665 27.5265 41.6261 27.5669 41.6261 27.6477L41.9359 30.1795C41.9359 31.5261 41.6665 32.3072 41.1279 32.6708C40.8097 32.7916 40.4716 32.851 40.1313 32.8459C38.6468 32.8745 37.2054 32.346 36.0912 31.3645C35.6737 30.9605 35.3101 29.3041 34.9735 26.4087C34.8987 25.9636 34.8582 25.5133 34.8523 25.062C34.7322 22.4334 35.1114 19.8058 35.97 17.3185C36.2074 16.5951 36.6084 15.9361 37.1416 15.3927C38.4729 14.1659 40.0953 13.2992 41.8551 12.8744C43.1408 12.5609 44.4685 12.4563 45.7874 12.5647ZM41.3837 22.9342L41.5723 23.0554C43.0132 22.8804 43.7405 22.5706 43.7405 22.1262C43.927 21.4155 43.927 20.6687 43.7405 19.958C43.6597 19.5271 43.3768 19.3386 42.8651 19.3924C42.397 19.7321 42.0369 20.1997 41.8281 20.7391C41.4945 21.4207 41.3414 22.1765 41.3837 22.9342Z" fill="white"/>
<path d="M64.4663 15.0157C65.5835 14.9608 66.6961 15.1926 67.6984 15.689C67.971 15.8939 68.1938 16.1579 68.3501 16.461C68.5063 16.7642 68.592 17.0988 68.6007 17.4397C68.5068 18.5333 68.0299 19.5587 67.254 20.3351C66.8769 20.6044 66.217 20.5102 65.2878 20.0658C64.5742 19.868 63.8199 19.8701 63.1074 20.072C62.3949 20.2739 61.7516 20.6677 61.2477 21.2105C61.0188 21.8434 61.2477 22.1127 61.975 21.9781C62.9562 21.9574 63.9319 21.8264 64.8838 21.5875C66.3986 21.247 67.981 21.3738 69.4222 21.9511C69.9809 22.3349 70.4341 22.853 70.74 23.4578C71.046 24.0626 71.1948 24.7347 71.1729 25.4122C71.1136 26.5044 70.8049 27.5685 70.2706 28.523C69.7358 29.3181 69.1023 30.0421 68.3852 30.6777C66.2387 32.1209 63.8405 33.1487 61.3151 33.7078C60.6005 33.8516 59.8754 33.9372 59.1469 33.9637C58.0629 34.015 56.9813 33.8217 55.9822 33.3981C55.5912 33.2362 55.2557 32.9642 55.0166 32.6151C54.7775 32.266 54.6451 31.8549 54.6355 31.4319C54.6233 30.684 54.7047 29.9375 54.8779 29.2098C55.0213 28.4822 55.2901 27.7849 55.6724 27.1494C56.0764 26.6376 56.4266 26.3683 56.7094 26.3683C57.8897 26.4314 59.0618 26.6027 60.2108 26.8801C61.6454 27.0453 63.0987 26.87 64.4529 26.3683C66.0689 25.6142 66.8635 25.0216 66.8231 24.6176C66.7827 24.2136 66.4595 24.1328 65.7457 24.254C64.3271 24.5014 62.9276 24.8479 61.5575 25.2909C60.8826 25.454 60.1913 25.5398 59.497 25.5468C59.0549 25.6067 58.6049 25.55 58.1915 25.3823C57.7781 25.2146 57.4157 24.9417 57.1403 24.5907C56.6769 23.6586 56.4458 22.6282 56.467 21.5875C56.4346 20.5327 56.6974 19.4898 57.2255 18.5762C57.7537 17.6626 58.5264 16.9146 59.4566 16.4162C60.2608 15.8466 61.1803 15.4604 62.15 15.285C62.9108 15.1159 63.687 15.0256 64.4663 15.0157Z" fill="white"/>
<path d="M80.64 15.6351C81.0512 15.6757 81.4452 15.8207 81.7847 16.0564C82.1241 16.2921 82.3976 16.6107 82.5792 16.9818C83.363 19.0773 83.7379 21.3036 83.6835 23.5402C83.7397 24.4372 83.7397 25.3367 83.6835 26.2336C83.5726 27.9892 83.293 29.7299 82.8486 31.4319C82.761 31.7654 82.5824 32.0681 82.3327 32.3059C82.083 32.5438 81.772 32.7074 81.4345 32.7786C80.3899 33.0796 79.3003 33.1936 78.2159 33.1153C77.6397 33.0954 77.0785 32.926 76.5874 32.6238C76.0963 32.3216 75.6923 31.8969 75.4148 31.3915C75.1104 29.549 74.9662 27.6836 74.9839 25.8162V24.4695C74.9763 23.0187 75.0754 21.5694 75.2801 20.1331C75.4055 19.1465 75.6779 18.1841 76.0882 17.2781C77.3857 16.2488 78.9842 15.6719 80.64 15.6351Z" fill="white"/>
<path d="M99.7498 13.0899C100.763 13.103 101.772 13.2066 102.766 13.3996C103.142 13.5012 103.483 13.7026 103.753 13.9824C104.024 14.2622 104.213 14.6099 104.302 14.9887C104.994 17.3627 105.316 19.8291 105.258 22.3013C105.373 25.1138 105.069 27.9278 104.356 30.6508C103.623 31.4081 102.73 31.9924 101.743 32.3611C100.872 32.8475 99.8982 33.1199 98.9014 33.1557C97.9722 33.1557 97.1642 32.1591 96.4639 30.1525C95.8397 28.8558 95.3392 27.5031 94.9691 26.1124C94.4292 24.4683 93.9796 22.7959 93.6224 21.1027C93.7444 24.4281 94.1045 27.7405 94.6997 31.0144C94.9556 32.0783 94.39 32.6304 92.9894 32.6708C91.632 32.7528 90.2824 32.4142 89.1244 31.7012C88.8775 31.5288 88.6762 31.2991 88.5378 31.0316C88.3994 30.7642 88.328 30.4671 88.3298 30.166C87.7983 27.5065 87.5545 24.7975 87.6026 22.0858C87.6026 17.7225 87.8181 15.2715 88.276 14.7598C88.6531 13.8171 89.7304 13.3054 91.5215 13.2246C93.8378 13.1168 95.1576 13.3996 95.5616 14.073C96.437 15.0022 97.7298 18.3285 99.4132 24.0655C99.3043 21.5763 99.0616 19.0948 98.6859 16.6317C98.4564 15.8906 98.303 15.128 98.2281 14.3558C98.1607 13.7228 98.6859 13.3054 99.7498 13.0899Z" fill="white"/>
<path d="M122.617 10.7332C123.841 10.9699 124.961 11.5818 125.822 12.4839C127.024 14.0316 127.832 15.8476 128.179 17.7764C128.369 19.0378 128.401 20.3182 128.273 21.5875C128.155 22.801 127.817 23.9829 127.276 25.0755C126.226 27.1333 124.736 28.9354 122.913 30.3545C121.539 31.5253 120.007 32.4956 118.361 33.2365C117.184 33.7574 115.918 34.0499 114.631 34.0983C113.734 33.9884 112.879 33.6545 112.144 33.1273C111.41 32.6002 110.82 31.8967 110.429 31.0817C109.719 29.6279 109.364 28.0265 109.392 26.4087C109.41 24.4207 109.76 22.4497 110.429 20.5775C110.939 19.2541 111.565 17.9787 112.301 16.7664C112.74 16.0442 113.25 15.3675 113.823 14.7463C115.063 13.3615 116.535 12.2039 118.173 11.3257C119.581 10.7608 121.109 10.5571 122.617 10.7332ZM115.547 26.7589C115.452 27.9035 116.112 28.4692 117.54 28.4692C118.773 28.2624 119.92 27.7009 120.839 26.8531C121.867 25.949 122.512 24.6875 122.644 23.3248C122.442 22.3686 121.984 21.8299 121.297 21.7222C120.379 21.8358 119.494 22.1328 118.694 22.5955C117.893 23.0582 117.194 23.6772 116.637 24.4156C116.093 25.0988 115.719 25.9021 115.547 26.7589Z" fill="white"/>
<path d="M138.952 12.1607C140.083 12.1607 140.689 12.8205 140.77 14.1403C141.255 19.3386 140.725 23.4684 139.181 26.5299C139.809 26.2587 140.457 26.038 141.12 25.87C142.477 25.5202 143.868 25.3126 145.268 25.2505C145.732 25.2301 146.196 25.3016 146.633 25.4611C147.07 25.6206 147.471 25.8648 147.813 26.1798C148.053 26.6154 148.161 27.1114 148.123 27.6073C148.261 29.3366 147.979 31.0737 147.301 32.6708C146.728 33.3101 145.934 33.7093 145.079 33.7886C143.014 34.1637 140.912 34.2903 138.817 34.1657C136.962 34.2231 135.147 33.6273 133.686 32.4823C132.961 30.6759 132.661 28.7267 132.811 26.7858C132.811 19.6034 133.058 15.496 133.552 14.4635C133.624 14.1326 133.767 13.8215 133.972 13.5517C134.176 13.2819 134.438 13.06 134.737 12.9013C136.069 12.3449 137.509 12.0919 138.952 12.1607Z" fill="white"/>
<path d="M162.95 12.5647C163.951 12.6454 164.913 12.9892 165.738 13.5612C166.747 14.6069 167.434 15.9204 167.717 17.3454C168.105 18.8646 168.312 20.424 168.337 21.9915C168.313 24.4003 168.11 26.804 167.731 29.1829C167.465 31.0124 166.587 32.6977 165.239 33.9637C164.763 34.1668 164.234 34.2094 163.731 34.0849C162.63 33.8467 161.637 33.2556 160.903 32.4015C160.297 31.195 160.058 29.8371 160.216 28.4961C160.216 28.4018 160.216 28.0921 160.216 27.5669H160.095H158.91C158.829 27.5669 158.789 27.6073 158.789 27.6881L159.112 30.2199C159.112 31.5666 158.829 32.3476 158.291 32.7112C157.977 32.8326 157.643 32.892 157.307 32.8863C155.822 32.9202 154.379 32.391 153.267 31.405C152.85 31.0009 152.473 29.3445 152.15 26.4491C152.075 26.004 152.034 25.5537 152.028 25.1024C151.903 22.4746 152.278 19.847 153.133 17.3589C153.375 16.6346 153.78 15.9758 154.318 15.4331C155.647 14.2039 157.27 13.3367 159.031 12.9148C160.31 12.5887 161.633 12.4705 162.95 12.5647ZM158.627 22.9342L158.802 23.0554C160.243 22.8804 160.97 22.5706 160.97 22.1262C161.158 21.4156 161.158 20.6686 160.97 19.958C160.89 19.5271 160.607 19.3386 160.095 19.3924C159.62 19.7279 159.254 20.1964 159.045 20.7391C158.719 21.4228 158.575 22.1788 158.627 22.9342Z" fill="white"/>
<path d="M184.295 13.0899C185.308 13.103 186.318 13.2066 187.312 13.3996C187.687 13.5012 188.028 13.7026 188.299 13.9824C188.569 14.2622 188.758 14.6099 188.847 14.9887C189.533 17.3641 189.855 19.8295 189.803 22.3013C189.922 25.1147 189.613 27.9299 188.887 30.6508C188.164 31.4229 187.276 32.0214 186.288 32.4015C185.417 32.8865 184.443 33.1588 183.447 33.1961C182.518 33.1961 181.71 32.1995 181.009 30.1929C180.385 28.8962 179.885 27.5435 179.514 26.1528C178.975 24.5087 178.525 22.8363 178.168 21.1431C178.292 24.455 178.652 27.7538 179.245 31.0144C179.501 32.0783 178.935 32.6304 177.535 32.6708C176.177 32.7528 174.828 32.4142 173.67 31.7012C173.423 31.5288 173.222 31.2991 173.083 31.0316C172.945 30.7642 172.873 30.4671 172.875 30.166C172.344 27.5065 172.1 24.7975 172.148 22.0858C172.148 17.7225 172.364 15.2715 172.821 14.7598C173.198 13.8171 174.276 13.3054 176.067 13.2246C178.383 13.1168 179.703 13.3996 180.026 14.073C180.924 14.9708 182.212 18.3016 183.891 24.0655C183.785 21.5756 183.537 19.0937 183.151 16.6317C182.935 15.8872 182.781 15.1259 182.693 14.3558C182.693 13.7228 183.231 13.3054 184.295 13.0899Z" fill="white"/>
<path d="M202.099 11.6489C203.116 11.5809 204.135 11.7554 205.071 12.1581C206.008 12.5608 206.835 13.1802 207.485 13.9652C211.876 20.564 211.876 26.3459 207.485 31.3107C205.436 32.7387 203.03 33.5686 200.536 33.7078C198.585 33.678 196.67 33.1693 194.961 32.2264C194.18 31.4094 193.767 28.2402 193.722 22.7188C193.677 17.1973 193.974 14.1672 194.611 13.6286C195.375 13.1058 196.229 12.727 197.129 12.5108C198.725 11.9451 200.405 11.6537 202.099 11.6489ZM200.994 21.0758C200.708 22.9575 200.681 24.8697 200.914 26.7588C200.981 27.2706 201.452 27.4995 202.26 27.4457C202.984 27.4163 203.686 27.1931 204.294 26.7992C204.747 26.3833 205.084 25.8569 205.273 25.2715C205.462 24.6861 205.496 24.0618 205.371 23.4594C204.779 21.197 203.513 20.1196 201.56 20.2139C201.304 20.2408 201.102 20.5102 200.994 21.0354V21.0758Z" fill="white"/>
<path d="M221.437 14.2884C221.848 14.329 222.242 14.474 222.582 14.7097C222.921 14.9454 223.195 15.264 223.376 15.6351C224.16 17.7306 224.535 19.9569 224.481 22.1936C224.537 23.0905 224.537 23.99 224.481 24.8869C224.37 26.6425 224.09 28.3832 223.646 30.0852C223.563 30.4103 223.395 30.7071 223.158 30.9442C222.921 31.1812 222.624 31.3498 222.299 31.4319C221.254 31.7329 220.165 31.8469 219.08 31.7686C218.495 31.7557 217.924 31.5881 217.425 31.283C216.926 30.9778 216.517 30.546 216.239 30.0313C215.934 28.1887 215.785 26.3236 215.794 24.456V23.1093C215.798 21.6584 215.901 20.2095 216.104 18.7729C216.229 17.7863 216.502 16.824 216.912 15.9179C218.204 14.899 219.792 14.3271 221.437 14.2884Z" fill="white"/>
<path d="M239.308 12.5647C240.309 12.6415 241.272 12.9857 242.095 13.5612C243.108 14.6057 243.8 15.9192 244.088 17.3454C244.439 18.8697 244.624 20.4275 244.641 21.9915C244.618 24.401 244.411 26.8051 244.021 29.1829C243.759 31.0106 242.885 32.6957 241.543 33.9637C241.067 34.1659 240.538 34.2084 240.035 34.0849C238.931 33.8533 237.936 33.2611 237.207 32.4015C236.6 31.195 236.362 29.8371 236.52 28.4961C236.52 28.4018 236.52 28.0921 236.587 27.5669H236.453H235.281C235.2 27.5669 235.16 27.6073 235.16 27.6881L235.47 30.2199C235.47 31.5666 235.2 32.3476 234.662 32.7112C234.343 32.832 234.005 32.8914 233.665 32.8863C232.18 32.9149 230.739 32.3864 229.625 31.405C229.207 31.0009 228.844 29.3445 228.507 26.4491C228.432 26.004 228.392 25.5538 228.386 25.1024C228.266 22.4738 228.645 19.8463 229.504 17.3589C229.74 16.6321 230.147 15.972 230.689 15.4331C232.013 14.2039 233.632 13.3366 235.389 12.9148C236.668 12.5892 237.991 12.471 239.308 12.5647ZM234.971 22.9342L235.16 23.0554C236.601 22.8804 237.328 22.5706 237.328 22.1262C237.515 21.4155 237.515 20.6687 237.328 19.958C237.261 19.5271 236.964 19.3386 236.466 19.3924C235.991 19.7279 235.625 20.1964 235.416 20.7391C235.082 21.4207 234.929 22.1765 234.971 22.9342Z" fill="white"/>
<path fill-rule="evenodd" clip-rule="evenodd" d="M143.319 13.1647C144.154 12.389 145.252 11.9579 146.392 11.9579C147.533 11.9579 148.631 12.389 149.466 13.1647C150.296 13.9345 150.806 14.9871 150.896 16.1142C150.915 16.314 150.919 16.5147 150.909 16.7149C150.916 16.8558 150.915 16.9969 150.908 17.1377C150.928 17.6992 150.843 18.2601 150.657 18.7913C150.451 19.3779 150.127 19.9158 149.704 20.3714C149.281 20.827 148.769 21.1904 148.199 21.4389C147.629 21.6875 147.014 21.8157 146.392 21.8157C145.771 21.8157 145.156 21.6875 144.586 21.4389C144.016 21.1904 143.504 20.827 143.081 20.3714C142.658 19.9159 142.334 19.3779 142.128 18.7913C141.942 18.26 141.857 17.6992 141.877 17.1377C141.87 16.9969 141.869 16.8558 141.876 16.7149C141.866 16.5147 141.87 16.3139 141.889 16.1142C141.979 14.9871 142.489 13.9345 143.319 13.1647ZM148.823 16.295L146.748 16.4496C146.742 16.3597 146.701 16.2758 146.635 16.2145C146.569 16.1533 146.483 16.1192 146.392 16.1192C146.302 16.1192 146.216 16.1533 146.15 16.2145C146.084 16.2758 146.043 16.3597 146.037 16.4496L146.035 16.4764L146.032 16.5031V16.5044L146.053 16.7104L146.033 16.9145L146.05 17.0916L146.037 17.271C146.033 17.32 146.039 17.3692 146.056 17.4155C146.072 17.4619 146.098 17.5044 146.131 17.5404C146.164 17.5763 146.205 17.605 146.25 17.6247C146.295 17.6443 146.343 17.6544 146.392 17.6544C146.442 17.6544 146.49 17.6443 146.535 17.6247C146.58 17.605 146.621 17.5763 146.654 17.5404C146.687 17.5044 146.713 17.4619 146.729 17.4155C146.746 17.3692 146.752 17.32 146.748 17.271L146.735 17.0916L146.752 16.9145L146.732 16.7104L146.753 16.5044V16.5031L148.823 16.295Z" fill="#B55BEF"/>
<path d="M146.386 19.554C147.732 19.554 148.823 18.4627 148.823 17.1165C148.823 15.7703 147.732 14.679 146.386 14.679C145.04 14.679 143.948 15.7703 143.948 17.1165C143.948 18.4627 145.04 19.554 146.386 19.554Z" fill="#400645"/>
<path d="M146.386 18.7325C147.732 18.7325 148.823 17.6412 148.823 16.295C148.823 14.9488 147.732 13.8575 146.386 13.8575C145.04 13.8575 143.948 14.9488 143.948 16.295C143.948 17.6412 145.04 18.7325 146.386 18.7325Z" fill="#FFE20D"/>
<path fill-rule="evenodd" clip-rule="evenodd" d="M217.051 4.47853C217.886 3.70281 218.984 3.27172 220.124 3.27172C221.265 3.27172 222.363 3.70281 223.198 4.47853C224.028 5.2483 224.538 6.30091 224.628 7.42804C224.647 7.62777 224.651 7.82851 224.641 8.0287C224.648 8.16957 224.647 8.31069 224.64 8.45153C224.66 9.01301 224.575 9.57383 224.389 10.1051C224.183 10.6917 223.859 11.2297 223.436 11.6853C223.013 12.1408 222.501 12.5042 221.931 12.7528C221.361 13.0013 220.746 13.1295 220.124 13.1295C219.503 13.1295 218.888 13.0013 218.318 12.7528C217.748 12.5043 217.236 12.1408 216.813 11.6853C216.39 11.2296 216.066 10.6917 215.86 10.1051C215.674 9.5739 215.589 9.01309 215.609 8.45154C215.601 8.3107 215.601 8.16957 215.608 8.0287C215.598 7.8285 215.602 7.62774 215.621 7.42801C215.711 6.30085 216.221 5.24826 217.051 4.47853ZM222.555 7.60883L220.48 7.76338C220.474 7.67354 220.433 7.58959 220.367 7.52833C220.301 7.46706 220.215 7.43301 220.124 7.43301C220.034 7.43301 219.948 7.46706 219.882 7.52833C219.816 7.58962 219.775 7.67359 219.769 7.76338L219.767 7.79017L219.764 7.8169V7.81824L219.785 8.02425L219.764 8.22831L219.782 8.40541L219.769 8.58486C219.765 8.63376 219.771 8.68295 219.788 8.72935C219.804 8.77575 219.83 8.81823 219.863 8.85417C219.896 8.89013 219.937 8.91884 219.982 8.93848C220.027 8.95811 220.075 8.96824 220.124 8.96824C220.174 8.96824 220.222 8.95811 220.267 8.93848C220.312 8.91887 220.353 8.89017 220.386 8.85417C220.419 8.81817 220.445 8.77568 220.461 8.72935C220.477 8.68303 220.484 8.63384 220.48 8.58486L220.467 8.40541L220.484 8.22831L220.464 8.02425L220.485 7.81824V7.8169L222.555 7.60883Z" fill="white"/>
<path fill-rule="evenodd" clip-rule="evenodd" d="M217.051 5.86563C217.886 5.0899 218.984 4.65881 220.124 4.65881C221.265 4.65881 222.363 5.0899 223.198 5.86563C224.028 6.63539 224.538 7.68801 224.628 8.81513C224.647 9.01486 224.651 9.2156 224.641 9.41579C224.648 9.55666 224.647 9.69779 224.64 9.83862C224.66 10.4001 224.575 10.9609 224.389 11.4922C224.183 12.0788 223.859 12.6168 223.436 13.0723C223.013 13.5279 222.501 13.8913 221.931 14.1398C221.361 14.3884 220.746 14.5166 220.124 14.5166C219.503 14.5166 218.888 14.3884 218.318 14.1398C217.748 13.8913 217.236 13.5279 216.813 13.0723C216.39 12.6167 216.066 12.0788 215.86 11.4922C215.674 10.961 215.589 10.4002 215.609 9.83863C215.601 9.69779 215.601 9.55666 215.608 9.41579C215.598 9.21559 215.602 9.01484 215.621 8.8151C215.711 7.68794 216.221 6.63535 217.051 5.86563ZM222.555 8.99592L220.48 9.15047C220.474 9.06063 220.433 8.97668 220.367 8.91543C220.301 8.85416 220.215 8.8201 220.124 8.8201C220.034 8.8201 219.948 8.85416 219.882 8.91543C219.816 8.97671 219.775 9.06068 219.769 9.15047L219.767 9.17726L219.764 9.20399V9.20534L219.785 9.41134L219.764 9.6154L219.782 9.7925L219.769 9.97196C219.765 10.0209 219.771 10.07 219.788 10.1164C219.804 10.1628 219.83 10.2053 219.863 10.2413C219.896 10.2772 219.937 10.3059 219.982 10.3256C220.027 10.3452 220.075 10.3553 220.124 10.3553C220.174 10.3553 220.222 10.3452 220.267 10.3256C220.312 10.306 220.353 10.2773 220.386 10.2413C220.419 10.2053 220.445 10.1628 220.461 10.1164C220.477 10.0701 220.484 10.0209 220.48 9.97196L220.467 9.7925L220.484 9.6154L220.464 9.41134L220.485 9.20534V9.20399L222.555 8.99592Z" fill="#B55BEF"/>
<path d="M220.131 12.2549C221.477 12.2549 222.568 11.1636 222.568 9.81741C222.568 8.47121 221.477 7.37989 220.131 7.37989C218.785 7.37989 217.693 8.47121 217.693 9.81741C217.693 11.1636 218.785 12.2549 220.131 12.2549Z" fill="#400645"/>
<path d="M220.131 11.4334C221.477 11.4334 222.568 10.3421 222.568 8.99593C222.568 7.64973 221.477 6.55841 220.131 6.55841C218.785 6.55841 217.693 7.64973 217.693 8.99593C217.693 10.3421 218.785 11.4334 220.131 11.4334Z" fill="#FFE20D"/>
</svg>
