<svg width="30" height="30" viewBox="0 0 30 30" fill="none" xmlns="http://www.w3.org/2000/svg">
<path d="M25.6907 13.0419C24.7527 8.1958 20.61 4.44397 15.7639 4.20948C10.6051 3.89679 6.1499 6.94519 4.58654 11.7913C3.98803 13.8113 3.96899 15.8322 4.51635 17.9208L4.74292 17.5754C7.00964 14.2144 9.19824 10.7752 10.996 7.10151C11.2305 6.63251 11.5431 6.2417 12.1685 6.39808C12.7937 6.55439 12.9499 7.02338 12.9499 7.5705C12.9499 7.72681 12.9499 7.805 12.9499 7.96131C12.6374 10.8533 12.6374 13.6672 12.8718 16.5593C13.0282 17.5754 13.1063 18.6697 13.5753 19.6076C13.7317 20.0766 13.9661 20.0766 14.2788 19.7639C14.5914 19.3731 14.904 19.0605 15.1387 18.6697C16.5455 16.5593 17.6399 14.2925 18.656 11.9476C18.9685 11.4005 19.125 10.697 19.9846 10.7752C20.61 10.8533 20.7664 11.2441 20.9226 12.3384C21.1572 14.4489 21.6262 16.4029 22.7986 18.2007C22.9548 18.357 23.1112 18.5915 22.8767 18.7478C22.7205 18.9041 22.5641 18.6697 22.4077 18.5915C21.7825 17.888 21.2353 17.1846 20.7664 16.3248C20.4536 15.7777 20.1411 15.1523 19.8284 14.4489C19.6721 14.8397 19.5157 15.1523 19.3594 15.465C18.4214 17.2627 17.5616 19.0605 16.2329 20.7019C15.5294 21.5617 14.7478 22.187 13.5753 21.9525C12.481 21.718 12.0121 20.8582 11.6995 19.8421C11.3086 18.5915 11.1523 17.3409 11.0741 16.0121C10.996 14.8397 11.0741 13.7454 11.0741 12.5729C10.996 12.5729 10.9177 12.5729 10.8396 12.5729C10.7615 12.6511 10.7615 12.8074 10.6833 12.8856C9.27636 15.465 7.86938 17.9662 6.22802 20.4674C5.99353 20.8582 5.99353 21.0927 6.30615 21.4835C8.96362 24.6882 12.3247 26.2515 16.4673 25.7044C22.5641 25.0009 26.863 19.1386 25.6907 13.0419Z" fill="white"/>
</svg>
