<svg width="30" height="30" viewBox="0 0 30 30" fill="none" xmlns="http://www.w3.org/2000/svg">
<path d="M18.232 19.1864H21.7511L24.1981 10.8882H20.6791L18.232 19.1864Z" fill="white"/>
<path d="M25.5498 5H8.88663C6.47455 5 3.58471 7.29814 2.6292 10.4286C1.82517 13.0497 0.38025 17.3354 0.0306727 20.0683C-0.295598 22.6273 2.03492 25 4.45865 25C8.4788 25 16.5191 25 20.5392 25C22.9513 25 26.3539 22.4783 27.0647 20.2174C27.8221 17.795 29.0573 13.6211 29.8263 10.9752C30.5371 8.54037 29.0573 5.08696 25.5498 5ZM7.91947 23.1863C7.06883 23.1863 5.98515 23.1863 4.8898 23.1863C3.23513 23.1863 0.182163 22.6646 2.50102 16.8509L4.35378 10.6025C4.81988 8.85093 6.97561 6.71428 9.6091 6.75155C10.5763 6.76398 16.6123 6.75155 16.6123 6.75155L15.5519 10.7019L15.517 10.8261H8.24574L7.62816 12.9006L6.38133 17.0248L6.28811 17.3354L5.76375 19.0994H9.56249L10.1917 17H8.24574L9.48092 12.8882H14.9576L13.268 19.1242C12.6155 21.3354 10.6578 23.1863 7.91947 23.1863ZM28.1367 10.7019L25.6197 19.2484C24.9672 21.4596 22.5085 23.1863 20.2712 23.1863C19.4206 23.1863 18.3369 23.1863 17.2415 23.1863C15.4237 23.1988 12.7902 22.2795 14.8528 16.8509L16.7055 10.6025C17.3581 8.3913 19.5604 6.46584 22.1939 6.5031C23.161 6.51553 25.8178 6.5031 25.8178 6.5031C27.7056 6.5031 28.8126 8.71429 28.1367 10.7019Z" fill="white"/>
</svg>
