<svg width="230" height="68" fill="none" xmlns="http://www.w3.org/2000/svg"><g opacity=".8"><path d="M70.28 9.639h4.473v4.473h-4.474V9.64z" fill="#F02B4C"/><path d="M68.682 26.894h2.556v7.669h-2.556v-7.67z" fill="#F9F9F8"/><path d="M71.219 16.669h2.556v10.225h-2.556V16.669zM40.64 37.119h-2.521c0-5.793 1.658-10.094 4.933-12.81h-7.988V21.78h10.96v3.48l-.562.374c-3.196 2.137-4.822 6-4.822 11.484zM23.864 35.8h-2.512c0-3.835 1.049-6.903 3.052-8.948h-4.93v-2.514h8.308v3.054l-.56.371c-2.227 1.483-3.358 4.19-3.358 8.036zM57.7 35.8h-2.512c0-3.835 1.048-6.903 3.051-8.948h-4.895v-2.514h8.308v3.054l-.559.371c-2.256 1.483-3.394 4.19-3.394 8.036zM73.775 29.45h2.556v2.557h-2.556V29.45z" fill="#F9F9F8"/><path d="M53.344 16.669v2.556H63.57v20.45H53.344v2.556h12.782V16.67H53.344zM27.781 19.225v-2.556H15V42.23h12.781v-2.556H17.556v-20.45h10.225zM40.563 11.556v2.556H25.225v-2.556h15.338zM30.337 16.669V42.23h20.45V16.67h-20.45zm17.894 23.006H32.894v-20.45H48.23v20.45zM27.781 46.213v-1.425h-2.556v2.914l15.338 8.835v-2.946L27.78 46.213z" fill="#F9F9F8"/><path d="M40.563 50.651v2.95l12.78-7.375v-1.438H50.75L40.562 50.65zM55.881 47.699l-15.319 8.85v2.937l17.894-10.31v-4.388H55.9l-.019 2.91zM40.563 47.702l5.06-2.914h-5.06v2.914zM40.563 47.715l-5.113-2.927h-5.052l10.165 5.854v-2.927zM40.563 9v2.556H55.9v2.557h2.556V9H40.562z" fill="#F9F9F8"/><path d="M96.97 31.013h-1.617v6.106h-3.665V21.78h5.275c3.215 0 4.832 1.662 4.832 4.563 0 2.85-1.879 4.669-4.825 4.669zm-1.617-6.036v2.837h1.278c.844 0 1.33-.575 1.33-1.441 0-.866-.521-1.396-1.33-1.396h-1.278zM103.665 37.119V21.78h3.7v11.877h3.515v3.46h-7.215zM121.875 33.473h-4.831l-1.279 3.656h-3.626l5.365-15.338h3.901l5.675 15.338h-3.921l-1.284-3.656zm-3.767-3.102h2.703l-1.352-3.88-1.351 3.88zM125.383 21.781h4.1l2.128 4.19 2.138-4.19h3.901l-4.345 7.733v7.605h-3.666v-7.525l-4.256-7.813z" fill="#F02B4C"/><path d="M150.914 35.422a7.066 7.066 0 0 1-5.112 1.994c-5.113 0-8.155-3.457-8.155-7.934 0-4.476 3.195-7.988 8.087-7.988 2.33 0 3.969.754 5.186 1.818l-2.192 2.793a4.399 4.399 0 0 0-2.933-1.128c-2.726 0-4.259 1.997-4.259 4.499s1.706 4.499 4.278 4.499a4.43 4.43 0 0 0 2.927-1.15l2.173 2.597zM160.666 33.473h-4.831l-1.278 3.656h-3.62l5.365-15.338h3.898l5.675 15.338h-3.924l-1.285-3.656zm-3.767-3.102h2.703l-1.351-3.88-1.352 3.88zM171.134 27.313l1.918.75c1.997.822 3.169 2.151 3.169 4.436 0 3.102-2.192 4.917-5.275 4.917-4.387 0-5.186-2.856-5.052-5.112h3.515c-.045.958.319 1.917 1.55 1.917.843 0 1.463-.466 1.463-1.352 0-.885-.62-1.278-1.617-1.664-.776-.32-1.553-.598-2.393-1.02-1.553-.795-2.371-2.304-2.371-4.154 0-2.68 1.949-4.543 4.94-4.543 3.614 0 4.921 2.06 4.767 4.793h-3.435c.023-.959-.463-1.62-1.329-1.62-.866 0-1.278.51-1.278 1.153 0 .642.371 1.1 1.428 1.499zM181.797 37.119h-3.713V21.78h3.713V37.12zM187.91 28.063v9.056h-3.556V21.78h3.812l5.751 9.267V21.78h3.566V37.12h-3.662l-5.911-9.056zM206.686 21.503c5.007 0 8.132 3.439 8.132 7.915 0 4.477-3.103 7.989-8.024 7.989-5.007 0-8.062-3.435-8.062-7.934 0-4.5 3.234-7.97 7.957-7.97h-.003zm.086 12.462c2.706 0 4.154-1.994 4.154-4.499s-1.537-4.473-4.176-4.473c-2.704 0-4.154 1.997-4.154 4.499s1.629 4.473 4.176 4.473zM215 53.096V43.55a2.257 2.257 0 0 0-2.237-2.236h-88.949a2.257 2.257 0 0 0-2.252 2.236v9.557a2.257 2.257 0 0 0 2.252 2.237h88.949a2.257 2.257 0 0 0 2.237-2.25z" fill="#F9F9F8"/><path d="M129.298 44.916h-5.081v1.482h1.636v5.221h1.812V46.4h1.633v-1.483zM135.184 46.897c0-1.319-.911-1.98-2.732-1.981h-2.196v6.71h1.812v-2.438h.457l1.422 2.438h2.055l-1.953-2.92a1.969 1.969 0 0 0 1.135-1.81zm-2.777.923h-.339v-1.534h.355c.623 0 .933.23.933.694 0 .559-.317.84-.949.84zM140.5 44.916v3.923c.037.371-.048.744-.243 1.061a1.145 1.145 0 0 1-1.597 0 1.619 1.619 0 0 1-.265-1.032v-3.953h-1.822v4.078a2.66 2.66 0 0 0 .738 2.016c.49.47 1.192.705 2.106.703.914-.002 1.631-.243 2.151-.722a2.723 2.723 0 0 0 .744-2.039v-4.035H140.5zM146.562 47.622a8.259 8.259 0 0 1-1.106-.569.45.45 0 0 1-.204-.355.366.366 0 0 1 .16-.32.839.839 0 0 1 .514-.123 4.017 4.017 0 0 1 1.623.43l.553-1.399a5.218 5.218 0 0 0-2.122-.479 2.978 2.978 0 0 0-1.853.518 1.72 1.72 0 0 0-.674 1.444c-.007.293.048.585.16.856.109.248.276.467.485.64.3.236.631.431.985.578.481.213.778.357.891.431a.906.906 0 0 1 .243.208.434.434 0 0 1-.112.6 1.009 1.009 0 0 1-.594.141 3.904 3.904 0 0 1-1.026-.15 5.44 5.44 0 0 1-1.077-.412v1.597c.3.145.617.253.943.32.371.07.747.102 1.125.096.48.01.957-.081 1.399-.269.37-.157.687-.42.911-.754a1.97 1.97 0 0 0 .319-1.105c.016-.403-.102-.8-.335-1.128a3.08 3.08 0 0 0-1.208-.796zM153.729 44.916h-5.081v1.479h1.636v5.224h1.812v-5.224h1.633v-1.48zM156.5 50.143v-1.265h2.01v-1.454h-2.01v-1.055h2.169v-1.453h-3.981v6.703h3.981v-1.476H156.5zM162.165 44.916h-2.323v6.71h2.169c1.117 0 1.983-.303 2.598-.908.616-.605.924-1.468.924-2.588 0-1.037-.292-1.832-.876-2.384-.584-.551-1.414-.828-2.492-.83zm1.099 4.738a1.455 1.455 0 0 1-1.208.48h-.39v-3.749h.528a1.35 1.35 0 0 1 1.108.448c.274.4.403.881.365 1.364a2.309 2.309 0 0 1-.403 1.457zM173.403 45.468c-.426-.37-1.065-.556-1.917-.556h-2.311v6.71h1.812v-2.236h.508a2.664 2.664 0 0 0 1.882-.614 2.232 2.232 0 0 0 .665-1.735 1.976 1.976 0 0 0-.639-1.569zm-1.438 2.237a.899.899 0 0 1-.639.227h-.32v-1.547h.467c.501 0 .754.227.754.681a.825.825 0 0 1-.262.623v.016zM176.573 44.887l-2.189 6.733h1.981l.342-1.26h2.176l.32 1.26h1.981l-2.218-6.733h-2.393zm.518 3.988c.279-1.053.459-1.757.54-2.112.08-.358.134-.617.163-.77.028.166.092.444.188.834.096.39.179.703.246.958l.288 1.1-1.425-.01zM186.859 46.894c0-1.321-.911-1.982-2.732-1.982h-2.199v6.71h1.812v-2.438h.46l1.422 2.439h2.055l-1.956-2.921a1.982 1.982 0 0 0 1.138-1.808zm-2.78.923h-.339v-1.534h.358c.62 0 .93.233.93.694 0 .559-.317.84-.949.84zM192.875 44.912h-5.081v1.483h1.636v5.221h1.812v-5.221h1.633v-1.483zM198.605 44.912v3.033c0 .409.019.958.064 1.626h-.029l-2.441-4.659h-2.365v6.71h1.598v-3.019c0-.393-.029-.959-.087-1.703h.042l2.448 4.723h2.377v-6.71h-1.607zM203.478 50.14v-1.265h2.01V47.42h-2.01v-1.055h2.169v-1.454h-3.981v6.704h3.981V50.14h-2.169zM210.613 48.696a1.97 1.97 0 0 0 1.137-1.802c0-1.321-.91-1.982-2.732-1.982h-2.198v6.71h1.818v-2.438h.46l1.422 2.439h2.055l-1.962-2.927zm-1.64-.882h-.335v-1.53h.358c.62 0 .933.23.933.693-.013.559-.332.837-.956.837z" fill="#000"/></g></svg>