<svg width="30" height="30" viewBox="0 0 30 30" fill="none" xmlns="http://www.w3.org/2000/svg">
<path d="M21.4739 15.5279V8.19331C21.4739 6.04137 20.8783 5.06856 20.1951 4.40683C19.4178 3.65852 18.036 3 15.1295 3C12.2231 3 10.8384 3.65745 10.0639 4.40683C9.38374 5.06856 8.78516 6.04137 8.78516 8.19331V15.6765C8.78504 16.3866 8.91844 17.0891 9.17697 17.7398C9.4355 18.3905 9.81358 18.9754 10.2874 19.4576L12.1085 21.3113C12.151 21.3546 12.2015 21.3876 12.2564 21.408C12.3113 21.4285 12.3696 21.436 12.4273 21.43C12.4851 21.4241 12.5411 21.4048 12.5916 21.3735C12.6421 21.3422 12.6861 21.2995 12.7206 21.2482L14.2637 18.9594C14.3243 18.8695 14.3525 18.758 14.343 18.6466C14.3335 18.5351 14.287 18.4314 14.2122 18.3554L12.9218 17.0416C12.6431 16.7578 12.4208 16.4137 12.2688 16.0308C12.1168 15.648 12.0384 15.2347 12.0385 14.817V9.7327C12.0385 8.19224 12.5749 7.53158 12.7789 7.35733C13.0122 7.15742 13.5087 6.67957 15.1295 6.67957C16.7504 6.67957 17.2469 7.15742 17.4801 7.35733C17.6842 7.53158 18.2206 8.19224 18.2206 9.7327V14.5283C18.2207 15.3083 17.9928 16.0677 17.5705 16.6942L13.7235 22.4017C13.6626 22.4914 13.634 22.6028 13.6434 22.7143C13.6527 22.8259 13.6992 22.9297 13.774 23.0057L15.1295 24.3858L15.6737 24.9395L16.0313 25.3041L16.4773 25.7584C16.6302 25.9138 16.8308 26.0001 17.039 26H20.6684C20.7514 25.9998 20.8325 25.9721 20.9011 25.9205C20.9696 25.8689 21.0225 25.7958 21.0528 25.7107C21.0831 25.6256 21.0894 25.5324 21.0709 25.4433C21.0525 25.3542 21.01 25.2733 20.9492 25.2111L18.069 22.2809L20.5527 18.597C21.1508 17.709 21.4737 16.6331 21.4739 15.5279Z" fill="white"/>
</svg>
